<svg width="280" height="110" viewBox="0 0 280 110" fill="none" xmlns="http://www.w3.org/2000/svg">
<path fill-rule="evenodd" clip-rule="evenodd" d="M272.498 86.8269C272.098 86.2864 270.155 83.395 268.164 80.4105C260.409 68.7976 255.506 62.1254 253.89 60.9963C252.622 60.0801 251.289 60.0257 249.829 60.7873C248.151 61.6622 247.612 63.2053 248.107 65.6688C248.516 67.7427 248.745 68.3332 252.831 79.73C254.308 83.8503 255.541 87.4272 255.577 87.7239C255.613 88.0206 253.563 86.2108 250.969 83.7378C238.905 72.1237 225.223 63.0891 209.763 56.5586C203.754 54.0528 190.259 49.85 184.475 48.6859C171.886 46.2194 158.957 45.9811 144.999 48.0144C142.264 48.3763 139.964 48.5895 139.899 48.4654C139.818 48.3104 139.098 46.3986 138.248 44.2388C133.26 31.262 123.006 20.1632 108.748 12.375C94.0315 4.31339 80.0985 1.08859 56.0354 0.188577C32.0034 -0.727636 13.9307 2.58409 4.91099 9.61468C0.764015 12.8027 -0.525398 15.4076 0.738376 17.9826C1.6128 19.7352 2.26783 19.5513 2.26718 17.5797C2.25164 15.6553 2.72243 14.7393 4.63994 13.1872C14.3964 5.22025 38.1314 2.30806 68.2463 5.41579C84.0172 7.01167 94.5791 10.062 105.913 16.2594C119.001 23.3956 128.421 33.3514 133.202 45.0957C135.372 50.3928 135.503 49.8115 131.777 50.9265C117.168 55.2716 104.812 64.3178 101.445 73.0938C97.4051 83.8379 104.947 94.813 115.95 94.1626C120.817 93.8722 126.908 90.7746 130.992 86.5549C137.416 79.8524 140.904 72.7485 141.728 64.6282C142.011 61.7596 141.796 56.2711 141.376 55.4649C141.02 54.7828 141.783 54.5031 145.409 53.9532C154.912 52.5472 165.731 52.1505 173.672 52.9787C186.697 54.3107 203.417 59.3947 215.977 65.8206C226.767 71.3548 237.019 78.5104 245.387 86.3726C249.157 89.8885 255.568 96.7998 255.465 97.2085C255.404 97.3191 253.788 97.1759 251.841 96.929C241.681 95.4832 233.578 96.2383 226.827 99.2069C223.109 100.869 222.041 101.624 222.848 102.11C223.022 102.217 225.106 102.273 227.472 102.262C233.737 102.15 246.933 104.418 264.312 108.567C267.741 109.382 271.433 110.02 272.717 109.982C277.807 109.891 280.483 106.76 279.652 101.909C279.409 100.458 278.643 98.6094 276.248 93.9422C274.58 90.5921 272.868 87.3836 272.498 86.8269ZM271.501 100.677C271.425 100.835 270.294 100.636 268.971 100.222L266.562 99.4669L264.92 93.8943C263.993 90.8282 263.002 87.6382 262.691 86.8144C262.034 84.9484 262.015 83.7752 262.659 84.859C262.885 85.2931 264.186 87.2571 265.519 89.2831C267.864 92.7933 271.695 100.064 271.501 100.677ZM136.76 60.633C136.855 68.4708 133.898 75.4556 127.859 81.7601C120.464 89.4814 111.265 90.2561 107.629 83.436C105.722 79.8555 106.342 75.5882 109.334 71.701C112.157 68.0203 115.544 65.2683 121.335 62.0509C126.288 59.271 128.902 58.1446 134.216 56.4379L136.32 55.7743L136.515 57.1322C136.637 57.8968 136.741 59.4597 136.76 60.633Z" fill="#400113"/>
</svg>
