<svg width="48" height="201" viewBox="0 0 48 201" fill="none" xmlns="http://www.w3.org/2000/svg">
<path fill-rule="evenodd" clip-rule="evenodd" d="M0.0172988 0.202066C0.0172988 0.321308 0.936065 1.13217 2.04549 2.02648C10.0021 8.394 23.1245 23.2158 29.4344 32.9459C33.2654 38.8484 37.0964 47.9107 39.3152 56.1861C43.0942 70.3401 45.0357 91.3267 43.8223 104.956C41.9328 125.943 35.5363 147.74 26.1062 165.161C24.9621 167.212 22.2405 171.851 20.039 175.44C17.0574 180.329 15.9999 181.748 15.8266 181.235C15.7399 180.83 15.3239 179.065 14.9426 177.324C13.8505 172.34 11.8223 165.722 10.9035 163.945C9.84611 162.037 8.58068 161.489 6.95121 162.24C6.10758 162.629 5.95159 164.76 6.48319 168.631C7.95664 179.017 8.37269 194.387 7.36728 199.229C7.10726 200.505 7.15923 200.648 8.04331 200.874C9.9328 201.339 11.0249 200.528 11.5796 198.215C11.7876 197.225 11.909 197.142 13.2611 197.142C14.3185 197.142 14.9425 196.915 15.7399 196.248C16.3293 195.759 16.832 195.174 16.832 194.972C16.832 194.423 22.2232 189.499 27.0075 185.707C29.2437 183.942 34.8428 179.888 39.5059 176.68C48.26 170.635 48.676 170.229 47.5493 168.774C46.9945 168.047 45.0704 167.642 43.7703 167.964C42.4702 168.309 25.5861 179.971 21.4604 183.393C19.7789 184.812 18.0975 186.196 17.7508 186.434C17.0747 186.923 17.2481 186.661 23.766 175.607C30.7865 163.623 34.1668 156.588 37.6164 146.631C43.2502 130.247 46.0758 115.664 46.5438 100.031C47.0119 85.3885 44.6024 66.5721 40.5634 53.5986C37.3218 43.1769 33.9068 36.4635 27.8049 28.2358C20.2296 18.136 8.14733 5.30563 2.09749 0.941378C0.884058 0.106685 0 -0.251047 0 0.190148L0.0172988 0.202066Z" fill="#400113"/>
</svg>
