<svg width="503" height="492" viewBox="0 0 503 492" fill="none" xmlns="http://www.w3.org/2000/svg">
<g filter="url(#filter0_d_203_80)">
<path d="M21 91.4755V84.1101H24.3971C36.8529 91.3536 43.8358 83.5075 45.1569 83.7489C46.4779 83.9904 72.1446 83.5075 72.7108 83.5075C73.1637 83.5075 73.5286 82.461 73.6544 81.9378C76.2211 79.2331 83.1536 80.3271 86.299 81.2122L93.4706 79.1606C99.0569 77.0355 104.354 79.6429 106.304 81.2122C117.061 80.2463 125.743 80.7303 130.272 80.6096C134.801 80.4888 144.615 77.4702 144.804 77.4702C144.993 77.4702 144.238 78.5569 146.502 79.1606C148.767 79.7644 149.145 78.9191 151.221 77.4702C153.297 76.0213 154.429 76.625 155.373 77.3495C156.316 78.0739 155.75 77.2287 155.939 76.625C156.127 76.0213 156.694 74.5723 157.637 73.4856C158.581 72.3989 157.826 73.9686 158.958 74.8138C160.091 75.659 159.713 73.2441 161.789 71.6744C163.865 70.1048 163.865 69.6218 169.338 71.1915C174.811 72.7612 177.265 72.1574 177.831 72.1574C178.397 72.1574 179.152 72.5197 180.85 73.0026C182.549 73.4856 183.304 71.433 184.059 70.8292C184.663 70.3463 186.701 70.3865 187.645 70.467C194.627 67.9314 200.1 71.433 205.762 70.8292C211.424 70.2255 212.368 72.8819 213.689 73.2441C215.01 73.6064 216.142 73.3649 218.218 73.9686C220.294 74.5723 220.105 76.5042 221.049 76.9872C221.993 77.4702 222.936 75.4175 224.446 76.5042C225.956 77.591 233.505 79.1606 234.26 79.7644L234.308 79.8027C235.169 80.4936 239.037 83.5952 241.998 81.9378C245.017 80.2473 252.755 80.1266 254.265 80.3681C255.775 80.6096 260.304 79.8851 263.324 78.9191C266.343 77.9532 267.853 80.2473 270.306 80.7303C272.269 81.1167 277.038 80.6498 279.176 80.3681C280.309 77.2287 284.65 80.8511 285.782 81.0926C286.688 81.2857 287.292 81.1731 287.48 81.0926C289.556 77.7117 293.52 83.1452 294.652 83.8697C295.784 84.5942 296.539 83.1452 296.917 83.266C297.294 83.3867 297.672 85.4394 299.748 86.2846C301.824 87.1298 302.956 83.7489 303.9 83.1452C304.843 82.5415 304.277 83.266 305.598 84.1112C306.655 84.7874 316.23 84.1514 320.885 83.7489C330.699 80.9718 329.566 81.5755 333.907 80.7303C338.248 79.8851 339.191 82.5415 340.89 82.3C342.588 82.0585 350.703 82.5415 354.478 82.5415C357.498 82.5415 360.014 75.5383 360.895 72.0367C371.275 73.4856 369.387 66.1202 376.37 66.8446C378.047 67.0186 377.691 66.3617 378.635 65.7579C379.578 65.1542 379.578 65.7579 380.9 65.5165C382.221 65.275 383.353 62.8601 384.108 62.6186C384.863 62.3771 385.806 64.6712 387.882 64.4298C389.958 64.1883 390.902 62.4978 391.846 61.7734C392.789 61.0489 394.11 61.8941 394.488 61.5319C394.865 61.1696 395.243 60.324 396.941 59.2373C398.64 58.1506 401.093 61.1689 402.414 60.8067C403.471 60.5169 405.245 60.6859 406 60.8067V69.0173C405.811 68.9368 405.358 68.7517 405.056 68.6551C404.679 68.5343 403.735 68.8966 402.037 69.0173C400.338 69.1381 398.451 67.9302 396.941 67.3264C395.431 66.7227 395.243 69.0169 394.676 69.4998C394.11 69.9828 394.299 69.6206 392.223 69.7413C390.147 69.8621 386.373 72.76 385.995 72.6392C385.618 72.5185 385.24 71.6735 384.485 71.0698C383.73 70.4661 381.466 72.6395 379.012 74.3299C377.049 75.6822 373.539 75.4569 372.029 75.1751C369.387 80.8501 362.404 79.4012 361.461 79.7634C360.517 80.1257 357.875 86.1629 357.12 88.2156C356.365 90.2682 354.667 89.423 352.213 89.6645C349.76 89.906 343.154 89.906 340.512 89.6645C337.87 89.423 337.115 88.4571 332.775 87.6118C328.434 86.7666 321.64 91.1134 319.752 91.3549C317.865 91.5964 305.032 91.1134 304.088 90.1475C303.145 89.1815 299.181 93.5284 298.615 93.5284C298.049 93.5284 296.728 90.5097 296.539 90.389C296.35 90.2682 295.218 90.9927 294.275 91.1134C293.331 91.2342 289.745 87.1289 289.368 87.1289C288.99 87.1289 287.48 88.94 286.348 88.5778C285.216 88.2156 282.196 84.8347 280.309 86.2836C278.422 87.7326 274.27 87.8533 272.194 87.8533C270.118 87.8533 269.74 84.3517 266.154 86.7666C262.569 89.1815 252.189 85.8007 245.772 88.5778C240.639 90.7995 235.455 88.1351 233.505 86.5251C231.429 86.2836 226.975 85.535 225.767 84.4725C224.559 83.4099 221.867 83.8687 220.672 84.231C220.483 83.6273 218.407 80.6086 216.52 81.0916C215.01 81.478 213.374 80.6888 212.745 80.2459C210.178 78.0238 205.133 77.9516 202.931 78.1932C193.873 76.1645 188.966 77.3479 187.645 78.1932C187.078 77.831 185.757 77.2997 185.002 78.0725C184.059 79.0384 179.718 80.8496 179.152 80.2459C178.586 79.6422 178.02 79.5214 175.566 80.0046C174.056 80.0046 166.319 77.5897 163.488 77.952C161.223 78.2418 159.525 80.8901 158.958 82.178C159.021 81.9768 158.732 81.502 157.071 81.2122C155.314 80.9057 155.314 84.2305 155.356 84.9678C155.367 85.0024 155.373 85.0385 155.373 85.076C155.373 85.1503 155.364 85.1018 155.356 84.9678C155.228 84.557 154.385 84.3515 153.863 84.3515C152.542 84.8345 149.635 85.9212 148.578 86.4042C147.522 86.8872 145.244 85.72 144.238 85.076C141.596 85.9212 130.083 88.0946 128.574 87.6117C127.064 87.1287 122.723 87.6117 120.081 87.6117C117.967 87.6117 110.016 88.1751 106.304 88.4569C99.5098 82.5404 86.299 88.4569 85.7328 88.4569C85.1667 88.4569 85.1667 87.0079 78.9387 87.6117C72.7108 88.2154 73.8431 89.9058 73.8431 90.2681C73.8431 90.5578 72.4591 90.3888 71.7672 90.2681C56.2917 92.3207 47.2328 90.0266 45.723 90.8718C44.5152 91.5479 40.5645 93.2464 38.7402 94.0111C32.701 96.5468 24.5858 91.4755 23.8309 91.4755H21Z" fill="#F5EEE4"/>
</g>
<g filter="url(#filter1_d_203_80)">
<path d="M21 406.383V398.777C23.1399 395.999 28.7038 391.532 33.8396 395.879C34.2173 395.838 35.9166 395.854 39.693 396.241C44.4134 396.724 43.2805 396.724 46.8681 396.965C50.4556 397.207 53.2879 396.603 54.0432 396.241C54.7355 396.845 56.1957 398.076 56.4978 398.173C56.8754 398.294 57.4419 396.362 59.3301 397.569C61.2182 398.777 66.5051 401.191 70.6591 399.984C71.1123 399.984 72.2326 399.179 72.7361 398.777C72.6732 399.823 72.8117 401.964 73.8691 402.157C75.1908 402.399 73.4914 402.157 75.9461 401.674C78.4007 401.191 77.8342 401.916 79.7224 400.95C81.6106 399.984 81.7994 399.018 83.31 400.346C84.8205 401.674 82.7435 402.64 85.387 402.761C88.0304 402.882 94.2614 402.278 94.639 404.331C95.0167 406.383 94.639 407.591 94.639 408.436C94.639 409.281 100.87 410.972 105.59 416.888C105.716 416.607 106.006 415.922 106.157 415.439C106.346 414.836 109.367 419.907 111.066 420.873C112.766 421.839 112.954 421.114 113.71 419.907C114.465 418.699 114.843 418.458 115.975 418.579C117.108 418.699 118.052 418.82 118.808 418.579C119.563 418.337 119.185 415.802 122.395 419.907C125.605 424.012 127.305 426.186 128.06 426.306C128.815 426.427 129.004 426.789 130.892 426.306C132.78 425.823 132.214 425.944 135.046 425.944C137.878 425.944 138.256 424.857 141.655 423.288C145.053 421.718 145.242 423.288 147.319 423.288C149.396 423.288 149.585 421.96 152.229 422.443C154.872 422.926 156.194 424.012 157.704 423.65C159.215 423.288 157.893 424.495 160.725 423.65C163.558 422.805 164.502 420.873 166.012 420.873C167.523 420.873 169.6 421.718 169.977 423.288C170.28 424.543 170.733 424.535 170.922 424.374L171.379 423.204C171.41 423.103 171.447 423.008 171.488 422.926L171.379 423.204C171.173 423.887 171.288 424.894 172.999 424.978C175.453 425.099 175.076 424.374 176.397 424.012C177.455 423.722 178.348 423.408 178.663 423.288C179.041 423.006 179.872 422.443 180.174 422.443C180.551 422.443 181.495 421.839 184.516 422.926C187.538 424.012 187.538 423.65 188.482 423.65C189.426 423.65 190.181 424.374 190.747 424.374C191.314 424.374 192.069 425.461 193.202 424.374C194.335 423.288 194.901 423.288 194.901 422.08C194.901 421.114 195.405 420.873 195.657 420.873C195.594 421.316 196.261 421.839 199.433 420.39C202.605 418.941 204.028 417.774 204.342 417.371C207.3 417.814 213.557 418.603 214.916 418.216C216.276 417.83 216.616 417.331 216.616 417.13C217.056 417.452 218.051 417.999 218.504 417.613C219.07 417.13 219.825 416.405 221.336 416.164C222.846 415.922 221.902 417.613 224.357 417.371C226.812 417.13 227 416.647 228.511 415.681C230.022 414.715 229.644 417.492 231.721 415.681C233.798 413.87 234.931 411.092 235.875 411.696C236.819 412.3 237.385 413.266 238.896 412.783C240.104 412.397 241.162 411.897 241.539 411.696C242.861 410.932 245.731 409.523 246.638 410.006C247.544 410.489 248.778 411.334 249.281 411.696C250.414 411.012 252.869 410.175 253.624 412.3C255.197 414.232 262.158 416.212 277.415 408.678C277.981 408.678 282.135 405.659 287.422 408.678C288.87 407.792 292.936 406.432 297.618 408.074C300.136 408.235 305.436 408.702 306.493 409.281C307.815 410.006 309.514 411.213 312.157 411.213C314.801 411.213 317.633 411.938 319.521 410.61C321.41 409.281 320.654 408.678 322.731 408.678C324.808 408.678 328.962 409.523 331.039 410.61C333.116 411.696 330.284 411.455 334.816 412.3C339.347 413.145 342.935 415.439 345.767 414.836C348.599 414.232 347.466 413.87 350.676 413.99C353.886 414.111 360.306 414.836 362.949 413.99C365.593 413.145 373.712 407.832 382.398 413.507C384.978 413.065 390.517 412.445 392.027 413.507C393.727 414.232 397.39 415.343 398.447 413.99C399.769 412.3 403.923 409.161 406 409.885V417.13C405.056 416.969 402.224 417.54 398.447 421.114C392.027 421.114 387.118 419.086 383.342 421.114C382.398 421.114 375.411 413.99 364.082 421.114C362.949 421.557 359.437 422.177 354.453 421.114C352.627 421.074 348.826 421.187 348.222 421.96C346.994 423.529 338.97 421.477 331.983 418.941C330.095 417.572 325.412 415.101 321.787 416.164C320.277 417.21 316.878 419.231 315.367 418.941C313.479 418.579 302.339 415.319 299.695 415.56C297.052 415.802 291.954 413.749 288.178 415.56C287.8 415.56 288.178 414.836 284.401 415.077C280.625 415.319 278.925 413.87 277.415 415.319C275.904 416.768 260.799 421.477 257.589 421.356C255.021 421.259 253.246 419.142 252.68 418.096C251.547 418.257 249.281 418.651 249.281 418.941C249.281 419.303 247.959 416.647 246.638 417.009C245.316 417.371 242.295 418.337 241.917 418.941C241.615 419.424 240.658 419.464 240.218 419.424C239.588 419.987 238.179 420.994 237.574 420.511C236.97 420.027 236.003 419.312 235.834 419.046C235.474 419.32 234.126 420.244 232.665 423.046C231.847 422.845 230.21 422.37 230.21 422.08C230.21 421.718 227.756 425.099 226.623 425.099C225.717 425.099 223.476 423.891 222.469 423.288L218.881 425.582C218.579 425.775 216.867 425.662 216.049 425.582C214.79 426.025 210.762 426.548 204.72 425.099L198.489 428.963L194.901 429.204C194.713 430.492 194.108 433.044 193.202 432.947C192.069 432.827 189.237 431.861 189.237 431.498C189.237 431.136 188.482 432.585 181.873 430.291C181.369 430.13 180.136 430.074 179.23 431.136L177.908 431.498C176.901 431.941 174.811 432.899 174.509 433.189C174.131 433.551 172.999 433.189 171.488 430.895C171.425 431.539 171.224 432.802 170.922 432.706C170.544 432.585 169.033 429.929 168.656 429.446C168.278 428.963 166.956 427.997 164.879 429.446C163.218 430.605 162.173 431.056 161.858 431.136L160.348 431.498C160.348 431.619 160.121 431.885 159.215 431.981C158.082 432.102 155.438 432.102 154.683 431.498C153.928 430.895 152.417 429.687 150.34 430.291C148.679 430.774 147.886 431.297 147.697 431.498C146.438 431.015 143.392 430.339 141.277 431.498C139.162 432.658 137.878 433.994 137.501 434.517C136.683 434.638 134.895 434.807 134.291 434.517C133.536 434.155 131.27 433.793 130.892 434.034C130.59 434.227 129.382 434.759 128.815 435C126.36 431.458 120.545 424.688 116.92 425.944C116.353 426.226 115.031 426.741 114.276 426.548C113.332 426.306 113.332 429.446 112.199 429.446C111.066 429.446 106.157 423.408 106.157 422.926C106.157 422.539 105.779 423.891 105.59 424.616C103.451 422.201 98.3399 417.178 95.0167 416.405C94.639 415.439 94.639 411.817 93.695 411.334C92.7509 410.851 88.0304 409.402 85.1981 409.644C84.8205 409.644 83.1211 406.746 81.7994 406.746C80.4777 406.746 79.7224 407.712 79.3448 408.074C79.0427 408.364 77.2048 408.597 76.3237 408.678L74.2467 409.644L72.3585 405.9C70.2186 407.148 64.617 408.581 59.3301 404.331C58.7007 404.291 57.2531 404.355 56.4978 404.935L54.6096 402.761C53.7285 403.284 51.7396 404.331 50.8333 404.331C49.7003 404.331 40.02 400.966 34.4061 402.761C32.8955 403.244 28.5527 396.362 21 406.383Z" fill="#F5EEE4"/>
</g>
<path fill-rule="evenodd" clip-rule="evenodd" d="M21 91.7895V88.5245H24.3971C34.253 94.2561 40.6822 90.54 43.5913 88.8585C44.3587 88.415 44.8811 88.113 45.1569 88.1634C46.2668 88.3663 64.5612 88.0578 70.7172 87.954H70.7173L70.7189 87.954C71.8891 87.9342 72.6203 87.9219 72.7108 87.9219C73.1637 87.9219 73.5286 86.8755 73.6544 86.3522C76.2211 83.6475 83.1536 84.7415 86.299 85.6266L93.4706 83.5751C99.0569 81.45 104.354 84.0573 106.304 85.6266C114.054 84.9308 120.726 84.9875 125.545 85.0284H125.545C127.415 85.0443 129.006 85.0578 130.272 85.024C134.001 84.9246 141.313 82.8606 143.885 82.1346L143.886 82.1345C144.437 81.9788 144.771 81.8847 144.804 81.8847C144.846 81.8847 144.841 81.9382 144.833 82.0282C144.806 82.3434 144.741 83.1054 146.502 83.5751C148.33 84.0623 148.928 83.606 150.182 82.6504L150.182 82.6503C150.482 82.4216 150.82 82.1644 151.221 81.8847C153.297 80.4357 154.429 81.0395 155.373 81.7639C155.983 82.2325 155.962 82.0444 155.921 81.6898C155.9 81.4961 155.872 81.2527 155.939 81.0395C156.127 80.4357 156.694 78.9868 157.637 77.9001C158.13 77.3332 158.16 77.4892 158.236 77.8881C158.307 78.2539 158.417 78.824 158.958 79.2283C159.536 79.6598 159.721 79.2415 160.04 78.5198C160.345 77.8279 160.773 76.8572 161.789 76.0889C161.948 75.9686 162.095 75.8547 162.233 75.7476L162.234 75.7473C163.897 74.4572 164.285 74.1566 169.338 75.6059C174.036 76.9532 176.509 76.6994 177.473 76.6004C177.633 76.584 177.751 76.5719 177.831 76.5719C178.179 76.5719 178.6 76.7092 179.267 76.9274C179.684 77.0637 180.198 77.2315 180.85 77.4171C182.079 77.7665 182.814 76.7887 183.413 75.9926C183.641 75.6884 183.85 75.4106 184.059 75.2437C184.663 74.7607 186.701 74.801 187.645 74.8815C191.862 73.35 195.529 74.0208 199.019 74.6593C201.307 75.078 203.52 75.4828 205.762 75.2437C209.9 74.8025 211.518 76.1024 212.604 76.9756C213.005 77.2973 213.333 77.5611 213.689 77.6586C214.262 77.8156 214.799 77.8592 215.393 77.9074C216.169 77.9703 217.042 78.0411 218.218 78.3831C219.491 78.7533 219.913 79.6229 220.266 80.3516C220.488 80.8113 220.684 81.2149 221.049 81.4017C221.446 81.6049 221.843 81.3591 222.283 81.0872C222.887 80.713 223.572 80.2893 224.446 80.9187C225.3 81.5333 228.085 82.3024 230.481 82.9638C232.321 83.4719 233.932 83.9165 234.26 84.1788L234.308 84.2172C235.169 84.9081 239.037 88.0096 241.998 86.3522C245.017 84.6618 252.755 84.5411 254.265 84.7825C255.775 85.024 260.304 84.2996 263.324 83.3336C265.248 82.7181 266.559 83.4262 267.891 84.146C268.65 84.5559 269.416 84.9695 270.306 85.1448C272.269 85.5312 277.038 85.0643 279.176 84.7825C280.034 82.4058 282.73 83.9047 284.481 84.8779C285.042 85.1902 285.507 85.4484 285.782 85.507C286.688 85.7002 287.292 85.5875 287.48 85.507C289.112 82.8497 291.91 85.6377 293.582 87.3046C294.038 87.7584 294.41 88.1291 294.652 88.2842C295.402 88.764 295.986 88.2903 296.405 87.9509C296.619 87.7778 296.789 87.6397 296.917 87.6804C297.032 87.7173 297.147 87.9338 297.31 88.241C297.682 88.9409 298.305 90.1116 299.748 90.699C301.183 91.2833 302.167 89.8481 302.949 88.7068C303.299 88.1971 303.608 87.7461 303.9 87.5597C304.432 87.219 304.484 87.3012 304.665 87.5894C304.805 87.812 305.022 88.1573 305.598 88.5256C306.655 89.2018 316.23 88.5659 320.885 88.1634C328.148 86.1081 329.415 85.9046 331.343 85.595C332.02 85.4863 332.779 85.3645 333.907 85.1448C336.612 84.618 337.998 85.4513 339.069 86.0956C339.717 86.4851 340.25 86.8055 340.89 86.7145C341.912 86.5692 345.256 86.6861 348.58 86.8023C350.781 86.8793 352.974 86.956 354.478 86.956C357.498 86.956 360.014 79.9527 360.895 76.4511C366.64 77.2531 368.627 75.3547 370.44 73.6224C371.903 72.2249 373.252 70.9356 376.37 71.2591C377.492 71.3756 377.704 71.1197 378.005 70.7567C378.153 70.5774 378.323 70.372 378.635 70.1724C379.164 69.8341 379.396 69.8749 379.731 69.9338C379.993 69.9799 380.319 70.0371 380.9 69.9309C381.674 69.7893 382.384 68.9009 382.99 68.1412C383.419 67.605 383.796 67.133 384.108 67.033C384.408 66.9371 384.738 67.2415 385.156 67.6281C385.792 68.2144 386.631 68.9897 387.882 68.8442C389.401 68.6676 390.313 67.716 391.063 66.934C391.339 66.6468 391.592 66.3824 391.846 66.1878C392.403 65.7601 393.091 65.8795 393.64 65.9745C394.02 66.0405 394.333 66.0947 394.488 65.9463C394.582 65.8558 394.676 65.735 394.792 65.5877L394.792 65.5877C395.137 65.1461 395.667 64.4667 396.941 63.6518C397.917 63.0273 399.143 63.7584 400.259 64.4246C401.086 64.9177 401.852 65.3752 402.414 65.2211C403.471 64.9313 405.245 65.1004 406 65.2211V67.5198V73.4318V406.206V410.194V413.45C405.056 413.289 402.224 413.861 398.447 417.435C396.126 417.435 394.003 417.17 392.059 416.927C388.626 416.499 385.753 416.14 383.342 417.435C383.183 417.435 382.852 417.233 382.358 416.93C379.919 415.438 373.502 411.512 364.082 417.435C362.949 417.878 359.437 418.498 354.453 417.435C352.627 417.395 348.826 417.507 348.222 418.28C346.994 419.85 338.97 417.797 331.983 415.262C330.095 413.893 325.412 411.422 321.787 412.484C320.277 413.531 316.878 415.551 315.367 415.262C314.852 415.163 313.649 414.848 312.118 414.448C308.035 413.382 301.618 411.705 299.695 411.881C298.789 411.964 297.593 411.776 296.26 411.568C293.709 411.169 290.658 410.691 288.178 411.881C288.089 411.881 288.042 411.841 287.974 411.784C287.75 411.595 287.295 411.213 284.401 411.398C282.843 411.497 281.638 411.309 280.655 411.156C279.255 410.937 278.302 410.788 277.415 411.639C275.904 413.088 260.799 417.797 257.589 417.676C255.021 417.58 253.246 415.463 252.68 414.416C251.547 414.577 249.281 414.972 249.281 415.262C249.281 415.367 249.169 415.216 248.977 414.958C248.51 414.331 247.574 413.073 246.638 413.33C245.316 413.692 242.295 414.658 241.917 415.262C241.615 415.745 240.658 415.785 240.218 415.745C239.588 416.308 238.179 417.314 237.574 416.831C237.437 416.722 237.282 416.601 237.121 416.475C236.573 416.047 235.965 415.573 235.834 415.367C235.817 415.38 235.797 415.395 235.775 415.411C235.344 415.734 234.055 416.699 232.665 419.367C231.847 419.166 230.21 418.691 230.21 418.401C230.21 418.274 229.91 418.606 229.47 419.091C228.654 419.991 227.359 421.42 226.623 421.42C225.717 421.42 223.476 420.212 222.469 419.608L218.881 421.903C218.579 422.096 216.867 421.983 216.049 421.903C214.79 422.345 210.762 422.869 204.72 421.42L198.489 425.283L194.901 425.525C194.713 426.813 194.108 429.365 193.202 429.268C192.069 429.147 189.237 428.181 189.237 427.819C189.237 427.737 189.198 427.748 189.06 427.788C188.592 427.922 186.98 428.385 181.873 426.612C181.369 426.451 180.136 426.394 179.23 427.457L177.908 427.819C176.901 428.262 174.811 429.22 174.509 429.509C174.131 429.872 172.999 429.509 171.488 427.215C171.425 427.859 171.224 429.123 170.922 429.027C170.67 428.946 169.915 427.739 169.327 426.799C169.033 426.33 168.782 425.927 168.656 425.766C168.278 425.283 166.956 424.317 164.879 425.766C163.218 426.926 162.173 427.376 161.858 427.457L160.348 427.819C160.348 427.94 160.121 428.205 159.215 428.302C158.082 428.423 155.438 428.423 154.683 427.819C153.928 427.215 152.417 426.008 150.34 426.612C148.679 427.095 147.886 427.618 147.697 427.819C146.438 427.336 143.392 426.66 141.277 427.819C139.162 428.978 137.878 430.314 137.501 430.838C136.683 430.958 134.895 431.127 134.291 430.838C133.536 430.475 131.27 430.113 130.892 430.355C130.59 430.548 129.382 431.079 128.815 431.321C126.36 427.779 120.545 421.009 116.92 422.265C116.353 422.547 115.031 423.062 114.276 422.869C113.816 422.751 113.58 423.437 113.327 424.171C113.063 424.943 112.779 425.766 112.199 425.766C111.066 425.766 106.157 419.729 106.157 419.246C106.157 418.86 105.779 420.212 105.59 420.937C103.451 418.522 98.3399 413.499 95.0167 412.726C94.8851 412.389 94.7994 411.73 94.7036 410.994C94.5244 409.617 94.3101 407.969 93.695 407.655C92.7509 407.172 88.0304 405.723 85.1981 405.964C85.0666 405.964 84.7747 405.613 84.3942 405.154C83.6824 404.297 82.6607 403.066 81.7994 403.066C80.639 403.066 79.9152 403.811 79.5002 404.238C79.4426 404.297 79.3909 404.35 79.3448 404.395C79.0427 404.684 77.2048 404.918 76.3237 404.998L74.2467 405.964L72.3585 402.221C70.2186 403.469 64.617 404.902 59.3301 400.651C58.7007 400.611 57.2531 400.676 56.4978 401.255L54.6096 399.082C53.7285 399.605 51.7396 400.651 50.8333 400.651C50.5736 400.651 49.8648 400.475 48.8589 400.224C45.4762 399.38 38.7332 397.698 34.4061 399.082C34.0517 399.195 33.5415 398.903 32.8705 398.519C30.6813 397.266 26.7809 395.033 21 402.704V399.085V395.097V95.89V91.7895ZM395.565 410.862C396.476 410.997 397.339 410.992 397.934 410.71L395.565 410.862Z" fill="#F5EEE4"/>
<g filter="url(#filter2_d_203_80)">
<path d="M439.852 314.048L444.265 311.769L444.516 312.255C441.096 316.278 446.313 314.85 446.266 315.114C446.219 315.378 448.405 318.901 448.447 318.982C448.48 319.047 449.134 318.775 449.457 318.631C451.267 318.162 451.124 319.492 450.826 320.216L452.585 320.608C454.271 320.749 453.1 322.314 452.304 323.079C453.677 324.319 454.029 325.711 454.436 326.322C454.843 326.933 457.377 327.403 457.391 327.43C457.405 327.457 456.698 327.685 456.503 328.196C456.309 328.707 456.843 328.499 457.865 328.348C458.886 328.197 458.608 328.546 458.244 328.905C457.879 329.264 458.344 328.922 458.72 328.762C459.095 328.602 460.006 328.235 460.726 328.034C461.447 327.832 460.451 328.21 460.028 328.634C459.605 329.057 461.025 328.256 462.119 328.067C463.213 327.879 463.502 327.729 462.966 328.998C462.429 330.267 462.972 330.431 463.014 330.512C463.056 330.593 462.895 330.813 462.731 331.206C462.567 331.598 463.853 331.071 464.27 330.992C464.604 330.929 464.731 331.233 464.752 331.393C466.788 331.608 465.094 333.475 465.874 334.098C466.654 334.721 465.132 335.678 465.012 335.979C464.893 336.28 465.121 336.368 464.913 336.852C464.704 337.335 463.533 337.906 463.313 338.191C463.093 338.475 464.393 337.975 463.853 338.527C463.314 339.08 462.931 340.645 462.625 340.94L462.605 340.959C462.255 341.296 460.682 342.809 461.894 342.72C463.13 342.629 463.774 343.699 463.741 343.99C463.708 344.28 464.477 344.704 465.279 344.837C466.081 344.971 464.817 345.897 464.709 346.397C464.623 346.797 465.255 347.335 465.582 347.554C467.546 346.745 465.697 348.487 465.635 348.724C465.587 348.913 465.699 348.964 465.761 348.967C467.94 348.218 464.977 350.466 464.627 350.852C464.276 351.238 465.2 350.898 465.156 350.989C465.111 351.081 463.909 351.77 463.556 352.328C463.203 352.887 465.312 352.003 465.744 351.951C466.175 351.899 465.699 352.042 465.291 352.493C464.964 352.853 466.052 354.027 466.637 354.568C469.026 355.113 468.581 355.138 469.408 355.498C470.235 355.857 468.713 356.814 468.983 356.983C469.253 357.151 469.564 358.462 469.842 359.002C470.066 359.434 474.448 357.627 476.611 356.67C476.51 358.603 480.784 356.054 480.866 357.278C480.886 357.572 481.253 357.317 481.684 357.266C482.116 357.214 481.754 357.401 481.996 357.515C482.239 357.629 483.77 357.044 483.97 357.077C484.17 357.111 482.865 357.956 483.164 358.178C483.462 358.4 484.544 358.012 485.048 357.923C485.552 357.834 485.143 358.285 485.388 358.227C485.633 358.168 486.168 357.961 486.944 357.868C487.721 357.775 486.094 359.059 486.408 359.136C486.66 359.198 486.69 359.504 486.673 359.649L481.753 362.19C481.787 362.138 481.865 362.016 481.9 361.943C481.945 361.851 481.658 361.828 481.46 361.623C481.262 361.417 481.847 360.773 482.097 360.37C482.347 359.968 480.959 360.65 480.627 360.719C480.296 360.787 480.527 360.702 480.301 360.442C480.076 360.183 478.06 360.539 478.105 360.448C478.149 360.356 478.628 360.041 478.934 359.746C479.24 359.451 477.77 359.8 476.576 359.972C475.62 360.109 475.496 359.537 475.553 359.234C471.957 360.612 472.31 359.164 472.023 359.141C471.736 359.118 467.923 360.608 466.638 361.135C465.352 361.662 465.733 361.158 465.407 360.881C465.081 360.605 464.593 359.66 464.542 359.207C464.492 358.754 465.015 358.347 465.201 357.465C465.386 356.582 462.28 356.955 461.996 356.76C461.711 356.564 461.053 354.578 461.562 354.145C462.071 353.711 459.173 354.488 459.132 354.407C459.09 354.326 460.801 353.203 460.859 353.139C460.918 353.075 460.4 353.137 460.258 353.039C460.116 352.941 462.311 351.158 462.283 351.104C462.255 351.05 461.058 351.395 461.192 351.12C461.325 350.846 463.128 349.368 462.12 349.546C461.113 349.725 460.734 349.168 460.58 348.871C460.427 348.574 462.497 347.436 460.785 347.67C459.073 347.905 460.332 345.373 458.194 345.314C456.484 345.267 457.697 343.701 458.518 342.924C458.509 342.552 458.629 341.683 459.176 341.182C459.724 340.68 459.25 340.437 458.944 340.378C459.292 340.164 460.948 338.933 460.519 338.812C460.176 338.716 460.528 338.238 460.747 338.011C461.889 336.956 461.559 336.212 461.252 335.971C461.798 334.047 460.727 333.711 460.122 333.784C460.298 333.591 460.518 333.237 460 333.368C459.351 333.532 457.945 333.471 458.265 333.204C458.585 332.936 458.615 332.818 458.145 332.616C458.033 332.4 458.909 330.546 458.482 330.253C458.141 330.018 456.429 330.594 455.615 330.912C455.74 330.859 456.004 330.67 456.055 330.343C456.109 329.997 454.116 331.026 453.677 331.26C453.657 331.272 453.636 331.284 453.614 331.295C453.569 331.318 453.598 331.302 453.677 331.26C453.914 331.114 453.975 330.93 453.936 330.855C453.549 330.816 452.683 330.736 452.316 330.734C451.948 330.732 452.48 330.045 452.791 329.702C452.089 329.586 449.937 328.611 450.114 328.245C450.292 327.88 449.682 327.408 449.487 327.03C449.331 326.728 448.406 325.764 447.963 325.32C451.006 322.517 446.485 322.458 446.443 322.377C446.401 322.296 447.269 321.847 446.447 321.143C445.626 320.439 444.696 321.124 444.479 321.236C444.306 321.325 444.305 321.075 444.326 320.939C441.952 319.359 442.658 317.353 442.04 317.399C441.545 317.435 440.236 317.395 439.643 317.371C437.677 317.291 440.116 314.561 440.061 314.453L439.852 314.048Z" fill="#F2C986" fill-opacity="0.8" shape-rendering="crispEdges"/>
</g>
<g filter="url(#filter3_d_203_80)">
<path d="M251.148 411.477L255.706 409.124C257.529 408.571 260.617 407.985 258.391 410.065C258.443 410.106 258.559 410.354 258.607 411.014C258.666 411.839 258.582 411.677 258.703 412.265C258.823 412.853 259.394 413.072 259.667 413.068C259.356 413.353 258.726 413.943 258.691 414.017C258.646 414.108 259.846 413.591 259.262 414.235C258.678 414.879 257.621 416.382 258.652 416.603C258.685 416.668 259.25 416.579 259.529 416.527C258.897 416.842 257.624 417.524 257.586 417.735C257.539 417.999 257.558 417.681 258.029 417.883C258.5 418.085 258.024 418.228 258.742 418.199C259.461 418.17 260.053 417.899 259.369 418.526C258.685 419.153 257.953 419.154 258.076 419.57C258.198 419.986 259.021 420.69 257.818 421.38C256.616 422.069 255.865 422.388 255.358 422.65C254.852 422.911 254.299 424.326 251.103 426.832C251.281 426.763 251.712 426.592 252.013 426.465C252.389 426.305 249.573 428.306 249.12 428.848C248.666 429.39 249.114 429.193 249.894 428.927C250.673 428.662 250.846 428.641 250.857 428.841C250.868 429.04 250.866 429.213 251.066 429.246C251.267 429.279 252.758 428.441 250.535 430.17L250.535 430.17C248.312 431.9 247.136 432.815 247.119 432.961C247.103 433.106 246.899 433.245 247.328 433.366C247.757 433.487 247.643 433.443 247.852 433.848C248.062 434.254 248.741 433.972 249.932 433.972C251.124 433.973 250.197 434.486 250.351 434.783C250.504 435.08 251.314 434.696 251.22 435.224C251.126 435.751 250.572 436.277 250.901 436.381C251.23 436.485 250.408 436.669 251.124 436.813C251.84 436.957 253.067 436.494 253.179 436.71C253.291 436.927 252.938 437.485 252.025 438.025C251.295 438.457 251.333 438.519 251.443 438.496L252.179 438.2C252.242 438.173 252.301 438.149 252.353 438.129L252.179 438.2C251.754 438.381 251.159 438.709 251.235 438.98C251.344 439.369 251.75 439.091 252.065 439.168C252.317 439.229 252.571 439.26 252.667 439.268C252.863 439.235 253.262 439.179 253.285 439.222C253.312 439.276 253.744 439.225 253.316 439.993C252.888 440.762 253.105 440.65 253.175 440.785C253.245 440.92 252.866 441.252 252.908 441.333C252.95 441.414 252.355 441.859 253.089 441.684C253.824 441.51 253.866 441.591 254.59 441.218C255.169 440.919 255.35 440.916 255.369 440.952C255.099 441.08 254.835 441.338 255.938 441.343C257.04 441.349 257.845 441.191 258.109 441.112C258.062 441.672 258.052 442.811 258.384 442.886C258.716 442.961 259.04 442.856 259.161 442.793C259 442.956 258.746 443.268 259.011 443.213C259.342 443.144 259.832 443.028 260.088 443.17C260.344 443.311 259.262 443.699 259.588 443.976C259.914 444.252 260.217 444.13 260.908 444.047C261.598 443.964 259.906 444.77 261.145 444.506C262.384 444.243 264.131 443.546 263.839 443.868C263.547 444.19 263.01 444.57 263.411 444.637C263.732 444.69 264.109 444.687 264.258 444.679C264.814 444.631 265.87 444.606 265.647 444.885C265.425 445.164 265.01 445.602 264.83 445.786C265.324 445.737 266.007 445.829 264.789 446.595C263.747 447.417 263.075 449.026 268.717 448.878C268.759 448.959 270.875 448.62 269.457 450.31C270.094 450.243 271.21 450.404 270.572 451.582C270.661 451.992 270.773 452.895 270.504 453.226C270.167 453.639 269.569 454.256 269.765 454.634C269.96 455.012 269.735 455.642 270.67 455.501C271.606 455.36 271.912 455.065 272.065 455.363C272.219 455.66 272.019 456.516 271.521 457.149C271.024 457.782 270.959 457.303 270.787 458.212C270.616 459.122 269.506 460.346 270.077 460.564C270.648 460.783 270.781 460.508 270.946 461.005C271.111 461.502 271.151 462.644 271.853 462.761C272.555 462.878 276.338 462.396 273.579 465.395C274.035 465.627 274.816 466.228 274.291 466.773C273.982 467.24 273.587 468.108 274.475 467.841C275.586 467.507 277.774 467.13 277.494 467.651L273.152 469.893C273.179 469.708 272.627 469.479 270.207 470.045C269.732 469.126 270.585 467.796 269.091 467.883C269.021 467.748 272.774 464.544 267.668 465.127C267.319 465.102 266.688 464.791 266.956 463.749C266.845 463.476 266.497 462.967 265.989 463.119C264.958 463.429 265.595 461.646 266.599 459.862C267.279 459.168 268.414 457.734 267.509 457.544C266.771 457.651 265.309 457.79 265.371 457.484C265.449 457.102 266.579 454.499 266.239 454.196C265.899 453.892 266.752 452.528 265.388 452.548C265.36 452.494 265.822 452.323 265.399 451.858C264.975 451.392 265.718 450.701 264.738 450.933C263.758 451.165 259.82 450.46 259.655 449.964C259.523 449.566 260.661 448.657 261.246 448.253C261.066 448.14 260.662 447.938 260.489 448.028C260.271 448.14 261.766 447.129 261.451 447.052C261.136 446.975 260.334 446.841 259.944 446.974C259.633 447.08 259.538 446.956 259.53 446.88C259.145 446.965 258.438 447.074 258.683 446.838C258.928 446.602 259.285 446.243 259.432 446.136C259.241 446.169 258.588 446.262 256.801 446.92C256.861 446.741 257.025 446.36 257.198 446.27C257.415 446.158 255.208 446.853 255.124 446.691C255.058 446.561 255.616 445.867 255.903 445.536L254.263 445.732C254.125 445.749 254.066 445.469 254.054 445.327C253.696 445.284 253.084 444.87 253.506 443.557L250.731 443.861L250.321 443.422C249.535 443.793 247.961 444.496 247.952 444.337C247.941 444.137 248.311 443.433 248.528 443.321C248.745 443.209 247.821 443.549 248.707 441.894C248.766 441.772 248.709 441.578 248.005 441.777L247.691 441.7C247.351 441.693 246.623 441.69 246.427 441.737C246.182 441.795 246.315 441.521 247.578 440.595C247.188 440.785 246.415 441.147 246.451 441.074C246.495 440.983 247.976 439.945 248.237 439.741C248.499 439.538 248.98 439.05 247.958 439.201C247.141 439.322 246.793 439.312 246.722 439.291L246.393 439.187C246.321 439.225 246.145 439.274 246.02 439.175C245.864 439.05 245.669 438.672 245.975 438.377C246.281 438.082 246.893 437.492 246.377 437.382C245.965 437.293 245.593 437.342 245.459 437.377C245.655 437.048 245.835 436.402 244.984 436.458C244.133 436.514 243.238 436.744 242.896 436.852C242.764 436.772 242.53 436.569 242.659 436.393C242.821 436.173 242.87 435.736 242.698 435.757C242.56 435.774 242.152 435.765 241.965 435.759C243.906 434.312 247.533 431.385 246.513 431.255C246.302 431.261 245.896 431.231 245.956 431.063C246.031 430.853 244.15 431.825 244.066 431.663C243.982 431.5 247.237 428.93 247.527 428.781C247.758 428.661 246.92 429.026 246.472 429.223C247.761 428.169 250.393 425.884 250.611 425.169C251.162 424.816 253.333 423.696 253.552 423.411C253.772 423.127 254.291 422.003 253.937 421.672C253.909 421.618 255.52 420.479 255.423 420.289C255.325 420.1 254.691 420.291 254.446 420.349C254.25 420.396 253.974 420.205 253.861 420.104L253.128 420.105L255.232 418.677C254.326 418.757 253.054 418.399 255.21 416.327C255.187 416.225 255.042 416.037 254.639 416.109L255.802 415.166C255.423 415.202 254.649 415.241 254.582 415.111C254.498 414.949 255.799 412.523 254.309 412.275C253.908 412.208 257.711 409.458 251.148 411.477Z" fill="#F2C986" fill-opacity="0.8" shape-rendering="crispEdges"/>
</g>
<path fill-rule="evenodd" clip-rule="evenodd" d="M279.698 466.513L479.108 363.555L479.108 363.556L484.028 361.015C484.045 360.87 484.015 360.564 483.763 360.502C483.629 360.47 483.847 360.218 484.081 359.947C484.398 359.582 484.745 359.18 484.299 359.234C483.717 359.303 483.27 359.438 482.98 359.525L482.98 359.525C482.883 359.554 482.804 359.578 482.743 359.592C482.643 359.616 482.652 359.555 482.663 359.48C482.68 359.372 482.7 359.236 482.403 359.289C482.268 359.313 482.091 359.359 481.898 359.408L481.898 359.408C481.374 359.543 480.736 359.706 480.518 359.544C480.339 359.41 480.741 359.05 481.046 358.778C481.246 358.598 481.405 358.457 481.325 358.443C481.242 358.43 480.931 358.522 480.578 358.626L480.578 358.626C480.078 358.775 479.493 358.948 479.351 358.881C479.245 358.831 479.255 358.766 479.263 358.714C479.274 358.648 479.281 358.603 479.039 358.632C478.897 358.649 478.761 358.688 478.643 358.722L478.643 358.722C478.403 358.791 478.234 358.84 478.221 358.644C478.184 358.097 477.312 358.303 476.367 358.526C475.194 358.803 473.91 359.106 473.966 358.036C471.803 358.993 467.42 360.8 467.197 360.368C467.086 360.152 466.97 359.815 466.854 359.476C466.678 358.964 466.501 358.45 466.338 358.348C466.236 358.285 466.389 358.11 466.574 357.896C466.881 357.544 467.278 357.088 466.763 356.864C466.548 356.77 466.419 356.699 466.304 356.636C465.976 356.456 465.76 356.338 463.992 355.934C463.407 355.393 462.318 354.219 462.645 353.859C462.824 353.663 463.014 353.525 463.138 353.436C463.297 353.321 463.342 353.288 463.099 353.317C462.966 353.333 462.672 353.428 462.341 353.536C461.599 353.777 460.667 354.08 460.911 353.694C461.156 353.306 461.812 352.855 462.204 352.585C462.376 352.466 462.497 352.383 462.511 352.355C462.526 352.324 462.43 352.343 462.311 352.366C462.076 352.411 461.749 352.474 461.981 352.218C462.056 352.135 462.251 351.967 462.489 351.762C463.365 351.007 464.829 349.744 463.116 350.332C463.054 350.33 462.941 350.279 462.99 350.089C463.005 350.032 463.125 349.886 463.271 349.709L463.271 349.709C463.725 349.157 464.424 348.307 462.936 348.92C462.61 348.701 461.977 348.163 462.064 347.763C462.103 347.581 462.295 347.344 462.484 347.108L462.484 347.108C462.817 346.695 463.144 346.288 462.633 346.203C461.832 346.07 461.063 345.646 461.096 345.355C461.129 345.065 460.485 343.995 459.249 344.086C458.037 344.175 459.61 342.662 459.96 342.325L459.98 342.306C460.113 342.178 460.26 341.81 460.429 341.389C460.648 340.842 460.903 340.205 461.208 339.893C461.521 339.573 461.216 339.606 460.947 339.636C460.752 339.657 460.575 339.676 460.668 339.557C460.753 339.446 460.98 339.294 461.239 339.12C461.65 338.844 462.14 338.514 462.268 338.217C462.386 337.943 462.364 337.797 462.344 337.666C462.329 337.566 462.315 337.476 462.367 337.345C462.399 337.264 462.533 337.136 462.696 336.979C463.139 336.553 463.799 335.919 463.229 335.464C462.92 335.217 462.999 334.775 463.081 334.318C463.205 333.621 463.336 332.889 462.107 332.759C462.086 332.599 461.959 332.295 461.625 332.358C461.51 332.38 461.328 332.436 461.129 332.498L461.129 332.498C460.607 332.658 459.967 332.856 460.086 332.572C460.149 332.421 460.211 332.295 460.262 332.194L460.262 332.194C460.344 332.031 460.395 331.928 460.369 331.878C460.363 331.867 460.347 331.853 460.326 331.836C460.195 331.728 459.86 331.453 460.32 330.364C460.816 329.192 460.607 329.23 459.711 329.391L459.711 329.391C459.636 329.405 459.557 329.419 459.473 329.433C458.938 329.525 458.325 329.765 457.887 329.935L457.887 329.935C457.431 330.113 457.167 330.216 457.383 329.999C457.585 329.797 457.919 329.605 458.133 329.481C458.366 329.347 458.457 329.294 458.081 329.399C457.36 329.601 456.45 329.968 456.075 330.128C455.942 330.184 455.798 330.263 455.684 330.326L455.684 330.326C455.474 330.442 455.363 330.503 455.599 330.271C455.963 329.912 456.241 329.563 455.22 329.714C455.022 329.743 454.843 329.775 454.684 329.802L454.684 329.802C454.019 329.919 453.701 329.974 453.858 329.562C454.009 329.165 454.471 328.938 454.662 328.845C454.716 328.818 454.749 328.802 454.745 328.796C454.743 328.791 454.662 328.773 454.528 328.742C453.903 328.598 452.126 328.191 451.791 327.688C451.677 327.517 451.567 327.285 451.439 327.013L451.439 327.013C451.107 326.311 450.648 325.338 449.659 324.445C450.455 323.68 451.626 322.115 449.94 321.973L448.181 321.582C448.479 320.858 448.622 319.528 446.812 319.997C446.489 320.141 445.835 320.413 445.802 320.348C445.795 320.335 445.733 320.234 445.635 320.073L445.635 320.072C445.118 319.224 443.582 316.701 443.621 316.48C443.631 316.425 443.411 316.443 443.089 316.471C441.866 316.575 439.165 316.805 441.871 313.621L441.62 313.135L439.663 314.145L439.663 314.145L255.521 409.22L255.521 409.22L253.353 410.339C258.376 408.793 257.327 410.042 256.738 410.743C256.557 410.958 256.42 411.121 256.514 411.137C257.663 411.328 257.153 412.813 256.897 413.558C256.821 413.78 256.768 413.936 256.787 413.973C256.854 414.103 257.628 414.064 258.006 414.028L256.844 414.97C257.247 414.899 257.392 415.086 257.415 415.189C255.258 417.26 256.531 417.619 257.437 417.539L255.333 418.967L256.065 418.965C256.179 419.067 256.454 419.257 256.65 419.211C256.68 419.204 256.716 419.195 256.756 419.185C257.042 419.112 257.542 418.985 257.628 419.151C257.691 419.274 257.029 419.801 256.568 420.169C256.322 420.365 256.132 420.515 256.142 420.534C256.496 420.865 255.977 421.988 255.757 422.273C255.614 422.458 254.642 422.999 253.83 423.45C253.396 423.692 253.008 423.908 252.816 424.031C252.598 424.746 249.966 427.031 248.677 428.084C249.125 427.887 249.963 427.523 249.732 427.642C249.442 427.792 246.187 430.362 246.271 430.524C246.314 430.607 246.828 430.393 247.31 430.192C247.769 430.001 248.197 429.823 248.161 429.925C248.101 430.093 248.507 430.123 248.718 430.116C249.738 430.247 246.111 433.173 244.17 434.62C244.357 434.627 244.764 434.635 244.902 434.619C245.075 434.598 245.025 435.034 244.864 435.255C244.735 435.431 244.968 435.634 245.101 435.714C245.443 435.606 246.338 435.376 247.189 435.32C248.04 435.264 247.86 435.909 247.663 436.239C247.798 436.204 248.17 436.155 248.582 436.244C249.097 436.354 248.486 436.944 248.18 437.239C247.874 437.533 248.069 437.912 248.225 438.036C248.35 438.136 248.526 438.086 248.598 438.049L248.927 438.153C248.998 438.173 249.345 438.183 250.163 438.062C251.185 437.911 250.703 438.399 250.442 438.603C250.355 438.671 250.132 438.831 249.872 439.019C249.353 439.393 248.685 439.875 248.656 439.936C248.62 440.009 249.392 439.647 249.783 439.456C248.52 440.382 248.386 440.657 248.631 440.599C248.827 440.552 249.556 440.555 249.895 440.562L250.21 440.639C250.914 440.44 250.971 440.634 250.912 440.756C250.227 442.035 250.623 442.122 250.738 442.148C250.772 442.155 250.782 442.157 250.732 442.183C250.515 442.295 250.146 442.999 250.157 443.199C250.166 443.358 251.74 442.655 252.526 442.284L252.935 442.722L255.711 442.418C255.289 443.731 255.9 444.146 256.259 444.189C256.271 444.331 256.33 444.611 256.468 444.594L258.108 444.398C257.82 444.729 257.262 445.423 257.329 445.553C257.384 445.658 258.335 445.401 258.935 445.24C259.258 445.152 259.479 445.093 259.403 445.132C259.229 445.222 259.066 445.603 259.006 445.782C260.707 445.156 261.38 445.042 261.606 445.003C261.617 445.001 261.628 445 261.637 444.998C261.523 445.08 261.284 445.314 261.068 445.525C261.004 445.587 260.943 445.647 260.888 445.7C260.643 445.936 261.35 445.826 261.734 445.742C261.743 445.818 261.838 445.942 262.149 445.836C262.539 445.703 263.341 445.837 263.656 445.914C263.879 445.968 263.194 446.492 262.853 446.752C262.712 446.859 262.63 446.922 262.693 446.89C262.867 446.8 263.271 447.002 263.451 447.114C262.866 447.519 261.728 448.428 261.86 448.826C262.025 449.322 265.963 450.027 266.942 449.795C267.518 449.658 267.499 449.841 267.472 450.109C267.452 450.297 267.428 450.527 267.603 450.72C267.928 451.076 267.733 451.26 267.636 451.35C267.607 451.378 267.586 451.397 267.593 451.409C268.489 451.396 268.428 451.981 268.378 452.469C268.351 452.724 268.327 452.953 268.444 453.057C268.691 453.278 268.161 454.715 267.823 455.629C267.696 455.972 267.597 456.242 267.576 456.346C267.514 456.652 268.976 456.513 269.714 456.405C270.619 456.595 269.484 458.03 268.803 458.724C267.8 460.508 267.163 462.291 268.194 461.981C268.702 461.829 269.05 462.338 269.161 462.611C268.893 463.653 269.523 463.964 269.872 463.989C274.118 463.504 272.239 465.638 271.525 466.448C271.38 466.612 271.284 466.722 271.295 466.745C272.25 466.689 272.247 467.211 272.244 467.835C272.242 468.189 272.24 468.574 272.411 468.907C274.832 468.341 275.384 468.57 275.357 468.754L279.698 466.513C279.698 466.513 279.698 466.513 279.698 466.513ZM276.403 466.752L276.137 466.461C276.123 466.633 276.19 466.754 276.403 466.752Z" fill="#F2C986" fill-opacity="0.8"/>
<g clip-path="url(#clip0_203_80)">
<path d="M72.5 116.815C96.9747 116.815 116.815 96.9746 116.815 72.5C116.815 48.0254 96.9747 28.1848 72.5 28.1848C48.0254 28.1848 28.1848 48.0254 28.1848 72.5C28.1848 96.9746 48.0254 116.815 72.5 116.815Z" fill="#F2C986"/>
<path d="M72.5 145C68.9491 145.002 65.3982 143.708 62.632 141.122C59.6852 138.37 55.4641 137.407 51.6168 138.607C44.3893 140.869 36.5771 137.104 33.835 130.044C32.3753 126.285 28.9903 123.587 25.0012 123C17.508 121.897 12.1027 115.119 12.6956 107.571C13.0114 103.549 11.1328 99.6504 7.79296 97.3901C1.52252 93.1464 -0.407593 84.6929 3.40107 78.1486C5.42946 74.6637 5.42946 70.3347 3.40107 66.8498C-0.407593 60.3055 1.52091 51.8536 7.79296 47.6083C11.1328 45.3479 13.0114 41.4474 12.6956 37.4277C12.1027 29.8781 17.508 23.1001 25.0012 21.9981C28.9903 21.4117 32.3737 18.7114 33.835 14.9527C36.5787 7.89444 44.3893 4.13572 51.6168 6.38967C55.4625 7.59156 59.6852 6.62811 62.632 3.87633C68.1661 -1.29211 76.8387 -1.29211 82.3681 3.87633C85.3164 6.62972 89.5391 7.59317 93.3832 6.38967C100.614 4.13572 108.423 7.89606 111.167 14.9543C112.625 18.7131 116.011 21.4117 120 21.9997C127.492 23.1017 132.897 29.8797 132.306 37.4293C131.99 41.4491 133.869 45.3496 137.209 47.6099C143.479 51.8536 145.409 60.3055 141.599 66.8514C139.572 70.3363 139.572 74.6669 141.599 78.1502C145.409 84.6945 143.479 93.148 137.209 97.3917C133.869 99.6521 131.99 103.551 132.306 107.572C132.896 115.124 127.492 121.902 120 123.002C116.011 123.588 112.626 126.289 111.165 130.046C108.423 137.104 100.616 140.869 93.3849 138.609C89.5359 137.41 85.3164 138.372 82.3697 141.124C79.6018 143.708 76.0509 145 72.5 145ZM54.9518 134.877C58.5671 134.877 62.1196 136.232 64.8327 138.768C69.1328 142.785 75.8705 142.785 80.1689 138.768C83.9598 135.224 89.3941 133.985 94.3451 135.533C99.9727 137.284 106.032 134.363 108.16 128.878C110.041 124.041 114.397 120.567 119.53 119.813C125.351 118.958 129.551 113.69 129.092 107.824C128.686 102.649 131.103 97.6285 135.401 94.7221C140.275 91.4241 141.773 84.8572 138.813 79.7709C136.205 75.2872 136.205 69.7144 138.813 65.2307C141.773 60.1444 140.275 53.5775 135.401 50.2796C131.103 47.3715 128.686 42.3513 129.092 37.178C129.551 31.3119 125.351 26.0452 119.53 25.1881C114.397 24.4325 110.039 20.9589 108.16 16.1224C106.03 10.6382 99.9727 7.71561 94.3451 9.4685C89.3941 11.0136 83.9598 9.77461 80.1689 6.23339C75.8688 2.21528 69.1312 2.21689 64.8327 6.23339C61.0402 9.77622 55.6107 11.0152 50.6566 9.4685C45.0386 7.71239 38.9696 10.6382 36.8397 16.1224C34.9611 20.9589 30.6047 24.4325 25.4717 25.1881C19.6491 26.0452 15.449 31.3119 15.9114 37.178C16.3174 42.3513 13.8991 47.3715 9.60224 50.2796C4.72863 53.5775 3.2303 60.1444 6.18991 65.2307C8.79991 69.716 8.79991 75.2888 6.18991 79.7709C3.2303 84.8572 4.73024 91.4241 9.60224 94.7221C13.9007 97.6285 16.3174 102.649 15.9114 107.824C15.4506 113.69 19.6507 118.956 25.4717 119.813C30.6047 120.567 34.9611 124.043 36.8397 128.878C38.9712 134.363 45.0418 137.281 50.6566 135.533C52.0647 135.092 53.5131 134.877 54.9518 134.877Z" fill="#400113"/>
<path d="M72.5001 126.484C59.1134 126.484 46.2728 121.549 36.3435 112.586C35.683 111.99 35.6314 110.972 36.2275 110.311C36.8237 109.651 37.8403 109.597 38.5024 110.195C47.8388 118.621 59.9125 123.261 72.5001 123.261C100.49 123.261 123.261 100.49 123.261 72.5C123.261 44.5102 100.49 21.7387 72.5001 21.7387C44.5103 21.7387 21.7388 44.5102 21.7388 72.5C21.7388 79.4294 23.1099 86.1461 25.8133 92.4601C26.1629 93.2785 25.7843 94.2258 24.9659 94.5754C24.1474 94.9299 23.2017 94.5448 22.8505 93.728C19.9747 87.0097 18.5166 79.8676 18.5166 72.4984C18.5166 42.7315 42.7332 18.5149 72.5001 18.5149C102.267 18.5149 126.484 42.7315 126.484 72.4984C126.485 102.267 102.267 126.484 72.5001 126.484Z" fill="#400113"/>
</g>
<defs>
<filter id="filter0_d_203_80" x="6" y="38" width="415" height="65.7211" filterUnits="userSpaceOnUse" color-interpolation-filters="sRGB">
<feFlood flood-opacity="0" result="BackgroundImageFix"/>
<feColorMatrix in="SourceAlpha" type="matrix" values="0 0 0 0 0 0 0 0 0 0 0 0 0 0 0 0 0 0 127 0" result="hardAlpha"/>
<feOffset dy="-6"/>
<feGaussianBlur stdDeviation="7.5"/>
<feComposite in2="hardAlpha" operator="out"/>
<feColorMatrix type="matrix" values="0 0 0 0 0 0 0 0 0 0 0 0 0 0 0 0 0 0 0.1 0"/>
<feBlend mode="normal" in2="BackgroundImageFix" result="effect1_dropShadow_203_80"/>
<feBlend mode="normal" in="SourceGraphic" in2="effect1_dropShadow_203_80" result="shape"/>
</filter>
<filter id="filter1_d_203_80" x="6" y="385.063" width="415" height="70.9373" filterUnits="userSpaceOnUse" color-interpolation-filters="sRGB">
<feFlood flood-opacity="0" result="BackgroundImageFix"/>
<feColorMatrix in="SourceAlpha" type="matrix" values="0 0 0 0 0 0 0 0 0 0 0 0 0 0 0 0 0 0 127 0" result="hardAlpha"/>
<feOffset dy="6"/>
<feGaussianBlur stdDeviation="7.5"/>
<feComposite in2="hardAlpha" operator="out"/>
<feColorMatrix type="matrix" values="0 0 0 0 0 0 0 0 0 0 0 0 0 0 0 0 0 0 0.1 0"/>
<feBlend mode="normal" in2="BackgroundImageFix" result="effect1_dropShadow_203_80"/>
<feBlend mode="normal" in="SourceGraphic" in2="effect1_dropShadow_203_80" result="shape"/>
</filter>
<filter id="filter2_d_203_80" x="423.876" y="290.769" width="78.281" height="80.4208" filterUnits="userSpaceOnUse" color-interpolation-filters="sRGB">
<feFlood flood-opacity="0" result="BackgroundImageFix"/>
<feColorMatrix in="SourceAlpha" type="matrix" values="0 0 0 0 0 0 0 0 0 0 0 0 0 0 0 0 0 0 127 0" result="hardAlpha"/>
<feOffset dy="-6"/>
<feGaussianBlur stdDeviation="7.5"/>
<feComposite in2="hardAlpha" operator="out"/>
<feColorMatrix type="matrix" values="0 0 0 0 0 0 0 0 0 0 0 0 0 0 0 0 0 0 0.1 0"/>
<feBlend mode="normal" in2="BackgroundImageFix" result="effect1_dropShadow_203_80"/>
<feBlend mode="normal" in="SourceGraphic" in2="effect1_dropShadow_203_80" result="shape"/>
</filter>
<filter id="filter3_d_203_80" x="226.965" y="399.602" width="65.5527" height="91.4424" filterUnits="userSpaceOnUse" color-interpolation-filters="sRGB">
<feFlood flood-opacity="0" result="BackgroundImageFix"/>
<feColorMatrix in="SourceAlpha" type="matrix" values="0 0 0 0 0 0 0 0 0 0 0 0 0 0 0 0 0 0 127 0" result="hardAlpha"/>
<feOffset dy="6"/>
<feGaussianBlur stdDeviation="7.5"/>
<feComposite in2="hardAlpha" operator="out"/>
<feColorMatrix type="matrix" values="0 0 0 0 0 0 0 0 0 0 0 0 0 0 0 0 0 0 0.1 0"/>
<feBlend mode="normal" in2="BackgroundImageFix" result="effect1_dropShadow_203_80"/>
<feBlend mode="normal" in="SourceGraphic" in2="effect1_dropShadow_203_80" result="shape"/>
</filter>
<clipPath id="clip0_203_80">
<rect width="145" height="145" fill="white"/>
</clipPath>
</defs>
</svg>
