<svg width="487" height="491" viewBox="0 0 487 491" fill="none" xmlns="http://www.w3.org/2000/svg">
<g filter="url(#filter0_d_203_81)">
<path d="M76.4668 121.63V114.264H79.8639C92.3197 121.508 99.3026 113.662 100.624 113.903C101.945 114.145 127.611 113.662 128.178 113.662C128.631 113.662 128.995 112.615 129.121 112.092C131.688 109.387 138.62 110.481 141.766 111.366L148.937 109.315C154.524 107.19 159.821 109.797 161.771 111.366C172.528 110.4 181.209 110.884 185.739 110.764C190.268 110.643 200.082 107.624 200.271 107.624C200.459 107.624 199.705 108.711 201.969 109.315C204.234 109.919 204.611 109.073 206.687 107.624C208.763 106.175 209.896 106.779 210.839 107.504C211.783 108.228 211.217 107.383 211.406 106.779C211.594 106.175 212.16 104.727 213.104 103.64C214.048 102.553 213.293 104.123 214.425 104.968C215.557 105.813 215.18 103.398 217.256 101.829C219.332 100.259 219.332 99.776 224.805 101.346C230.278 102.915 232.732 102.312 233.298 102.312C233.864 102.312 234.619 102.674 236.317 103.157C238.016 103.64 238.771 101.587 239.526 100.983C240.13 100.5 242.168 100.541 243.111 100.621C250.094 98.0855 255.567 101.587 261.229 100.983C266.891 100.38 267.834 103.036 269.156 103.398C270.477 103.761 271.609 103.519 273.685 104.123C275.761 104.727 275.572 106.658 276.516 107.141C277.459 107.624 278.403 105.572 279.913 106.658C281.423 107.745 288.972 109.315 289.727 109.919L289.774 109.957C290.636 110.648 294.504 113.749 297.464 112.092C300.484 110.402 308.222 110.281 309.731 110.522C311.241 110.764 315.771 110.039 318.79 109.073C321.81 108.107 323.32 110.402 325.773 110.884C327.736 111.271 332.504 110.804 334.643 110.522C335.776 107.383 340.116 111.005 341.249 111.247C342.155 111.44 342.758 111.327 342.947 111.247C345.023 107.866 348.986 113.299 350.119 114.024C351.251 114.748 352.006 113.299 352.383 113.42C352.761 113.541 353.138 115.594 355.214 116.439C357.29 117.284 358.423 113.903 359.366 113.299C360.31 112.696 359.744 113.42 361.065 114.265C362.122 114.942 371.696 114.306 376.352 113.903C386.165 111.126 385.033 111.73 389.374 110.884C393.714 110.039 394.658 112.696 396.357 112.454C398.055 112.213 406.17 112.696 409.945 112.696C412.964 112.696 415.481 105.692 416.361 102.191C426.741 103.64 424.854 96.2744 431.837 96.9988C433.514 97.1728 433.158 96.5158 434.102 95.9121C435.045 95.3084 435.045 95.9121 436.366 95.6706C437.687 95.4291 438.82 93.0142 439.575 92.7728C440.33 92.5313 441.273 94.8254 443.349 94.5839C445.425 94.3424 446.369 92.652 447.312 91.9275C448.256 91.2031 449.577 92.0483 449.955 91.686C450.332 91.3238 450.709 90.4782 452.408 89.3915C454.107 88.3048 456.56 91.3231 457.881 90.9608C458.938 90.6711 460.712 90.8401 461.467 90.9608V99.1715C461.278 99.091 460.825 98.9059 460.523 98.8093C460.146 98.6885 459.202 99.0508 457.504 99.1715C455.805 99.2922 453.918 98.0843 452.408 97.4806C450.898 96.8769 450.709 99.171 450.143 99.654C449.577 100.137 449.766 99.7748 447.69 99.8955C445.614 100.016 441.839 102.914 441.462 102.793C441.084 102.673 440.707 101.828 439.952 101.224C439.197 100.62 436.932 102.794 434.479 104.484C432.516 105.836 429.006 105.611 427.496 105.329C424.854 111.004 417.871 109.555 416.928 109.918C415.984 110.28 413.342 116.317 412.587 118.37C411.832 120.422 410.133 119.577 407.68 119.819C405.227 120.06 398.621 120.06 395.979 119.819C393.337 119.577 392.582 118.611 388.241 117.766C383.901 116.921 377.107 121.268 375.219 121.509C373.332 121.751 360.499 121.268 359.555 120.302C358.611 119.336 354.648 123.683 354.082 123.683C353.516 123.683 352.195 120.664 352.006 120.543C351.817 120.422 350.685 121.147 349.741 121.268C348.798 121.388 345.212 117.283 344.834 117.283C344.457 117.283 342.947 119.094 341.815 118.732C340.682 118.37 337.663 114.989 335.776 116.438C333.888 117.887 329.736 118.008 327.66 118.008C325.584 118.008 325.207 114.506 321.621 116.921C318.035 119.336 307.656 115.955 301.239 118.732C296.106 120.954 290.922 118.289 288.972 116.679C286.896 116.438 282.442 115.689 281.234 114.627C280.026 113.564 277.334 114.023 276.138 114.385C275.95 113.781 273.874 110.763 271.986 111.246C270.477 111.632 268.841 110.843 268.212 110.4C265.645 108.178 260.6 108.106 258.398 108.347C249.339 106.319 244.432 107.502 243.111 108.347C242.545 107.985 241.224 107.454 240.469 108.227C239.526 109.193 235.185 111.004 234.619 110.4C234.053 109.796 233.486 109.676 231.033 110.159C229.523 110.159 221.785 107.744 218.955 108.106C216.69 108.396 214.991 111.044 214.425 112.332C214.488 112.131 214.199 111.656 212.538 111.366C210.781 111.06 210.781 114.385 210.823 115.122C210.834 115.157 210.839 115.193 210.839 115.23C210.839 115.304 210.83 115.256 210.823 115.122C210.695 114.711 209.852 114.506 209.33 114.506C208.008 114.989 205.102 116.075 204.045 116.558C202.988 117.041 200.711 115.874 199.705 115.23C197.062 116.075 185.55 118.249 184.04 117.766C182.531 117.283 178.19 117.766 175.548 117.766C173.434 117.766 165.482 118.329 161.771 118.611C154.977 112.695 141.766 118.611 141.2 118.611C140.633 118.611 140.633 117.162 134.406 117.766C128.178 118.37 129.31 120.06 129.31 120.422C129.31 120.712 127.926 120.543 127.234 120.422C111.758 122.475 102.7 120.181 101.19 121.026C99.982 121.702 96.0313 123.401 94.207 124.165C88.1678 126.701 80.0526 121.63 79.2977 121.63H76.4668Z" fill="#F5EEE4"/>
</g>
<g filter="url(#filter1_d_203_81)">
<path d="M76.4668 436.538V428.931C78.6067 426.154 84.1706 421.686 89.3064 426.033C89.6841 425.993 91.3834 426.009 95.1598 426.395C99.8802 426.878 98.7473 426.878 102.335 427.12C105.922 427.361 108.755 426.757 109.51 426.395C110.202 426.999 111.662 428.23 111.965 428.327C112.342 428.448 112.909 426.516 114.797 427.723C116.685 428.931 121.972 431.346 126.126 430.138C126.579 430.138 127.699 429.333 128.203 428.931C128.14 429.977 128.278 432.118 129.336 432.312C130.658 432.553 128.958 432.312 131.413 431.829C133.867 431.346 133.301 432.07 135.189 431.104C137.077 430.138 137.266 429.172 138.777 430.5C140.287 431.829 138.21 432.795 140.854 432.915C143.497 433.036 149.728 432.432 150.106 434.485C150.483 436.538 150.106 437.745 150.106 438.59C150.106 439.435 156.337 441.126 161.057 447.042C161.183 446.761 161.473 446.076 161.624 445.593C161.813 444.99 164.834 450.061 166.533 451.027C168.232 451.993 168.421 451.269 169.176 450.061C169.932 448.854 170.309 448.612 171.442 448.733C172.575 448.854 173.519 448.974 174.275 448.733C175.03 448.491 174.652 445.956 177.862 450.061C181.072 454.166 182.771 456.34 183.527 456.461C184.282 456.581 184.471 456.944 186.359 456.461C188.247 455.978 187.681 456.098 190.513 456.098C193.345 456.098 193.723 455.012 197.122 453.442C200.52 451.872 200.709 453.442 202.786 453.442C204.863 453.442 205.052 452.114 207.695 452.597C210.339 453.08 211.661 454.166 213.171 453.804C214.682 453.442 213.36 454.649 216.192 453.804C219.024 452.959 219.969 451.027 221.479 451.027C222.99 451.027 225.067 451.872 225.444 453.442C225.746 454.698 226.2 454.69 226.388 454.529L226.846 453.358C226.877 453.257 226.914 453.163 226.955 453.08L226.846 453.358C226.639 454.042 226.755 455.048 228.465 455.132C230.92 455.253 230.542 454.529 231.864 454.166C232.921 453.877 233.815 453.563 234.13 453.442C234.508 453.16 235.338 452.597 235.64 452.597C236.018 452.597 236.962 451.993 239.983 453.08C243.004 454.166 243.004 453.804 243.948 453.804C244.893 453.804 245.648 454.529 246.214 454.529C246.781 454.529 247.536 455.615 248.669 454.529C249.802 453.442 250.368 453.442 250.368 452.234C250.368 451.269 250.872 451.027 251.123 451.027C251.061 451.47 251.728 451.993 254.9 450.544C258.072 449.095 259.494 447.928 259.809 447.525C262.767 447.968 269.023 448.757 270.383 448.371C271.742 447.984 272.082 447.485 272.082 447.284C272.523 447.606 273.517 448.153 273.97 447.767C274.537 447.284 275.292 446.559 276.803 446.318C278.313 446.076 277.369 447.767 279.824 447.525C282.278 447.284 282.467 446.801 283.978 445.835C285.488 444.869 285.111 447.646 287.188 445.835C289.265 444.024 290.398 441.247 291.342 441.85C292.286 442.454 292.852 443.42 294.363 442.937C295.571 442.551 296.629 442.052 297.006 441.85C298.328 441.086 301.198 439.677 302.104 440.16C303.011 440.643 304.244 441.488 304.748 441.85C305.881 441.166 308.335 440.329 309.091 442.454C310.664 444.386 317.625 446.366 332.882 438.832C333.448 438.832 337.602 435.813 342.889 438.832C344.337 437.946 348.403 436.586 353.085 438.228C355.603 438.389 360.902 438.856 361.96 439.435C363.281 440.16 364.981 441.367 367.624 441.367C370.268 441.367 373.1 442.092 374.988 440.764C376.876 439.435 376.121 438.832 378.198 438.832C380.275 438.832 384.429 439.677 386.506 440.764C388.583 441.85 385.751 441.609 390.282 442.454C394.814 443.299 398.402 445.593 401.234 444.99C404.066 444.386 402.933 444.024 406.143 444.145C409.353 444.265 415.773 444.99 418.416 444.145C421.06 443.299 429.179 437.987 437.865 443.662C440.445 443.219 445.984 442.599 447.494 443.662C449.194 444.386 452.857 445.497 453.914 444.145C455.236 442.454 459.39 439.315 461.467 440.039V447.284C460.523 447.123 457.69 447.694 453.914 451.269C447.494 451.269 442.585 449.24 438.809 451.269C437.865 451.269 430.878 444.145 419.549 451.269C418.416 451.711 414.904 452.331 409.919 451.269C408.094 451.228 404.293 451.341 403.688 452.114C402.461 453.683 394.436 451.631 387.45 449.095C385.562 447.727 380.879 445.255 377.254 446.318C375.743 447.364 372.345 449.385 370.834 449.095C368.946 448.733 357.806 445.473 355.162 445.714C352.519 445.956 347.421 443.903 343.644 445.714C343.267 445.714 343.644 444.99 339.868 445.231C336.092 445.473 334.392 444.024 332.882 445.473C331.371 446.922 316.266 451.631 313.056 451.51C310.488 451.413 308.713 449.296 308.147 448.25C307.014 448.411 304.748 448.805 304.748 449.095C304.748 449.457 303.426 446.801 302.104 447.163C300.783 447.525 297.762 448.491 297.384 449.095C297.082 449.578 296.125 449.618 295.685 449.578C295.055 450.142 293.645 451.148 293.041 450.665C292.437 450.182 291.47 449.467 291.301 449.2C290.94 449.475 289.593 450.398 288.132 453.2C287.314 452.999 285.677 452.524 285.677 452.234C285.677 451.872 283.223 455.253 282.09 455.253C281.183 455.253 278.943 454.046 277.936 453.442L274.348 455.736C274.046 455.929 272.334 455.817 271.516 455.736C270.257 456.179 266.229 456.702 260.187 455.253L253.956 459.117L250.368 459.358C250.179 460.646 249.575 463.198 248.669 463.102C247.536 462.981 244.704 462.015 244.704 461.653C244.704 461.29 243.948 462.739 237.34 460.445C236.836 460.284 235.603 460.228 234.696 461.29L233.375 461.653C232.368 462.095 230.278 463.053 229.976 463.343C229.598 463.705 228.465 463.343 226.955 461.049C226.892 461.693 226.69 462.957 226.388 462.86C226.011 462.739 224.5 460.083 224.123 459.6C223.745 459.117 222.423 458.151 220.346 459.6C218.685 460.759 217.64 461.21 217.325 461.29L215.815 461.653C215.815 461.773 215.588 462.039 214.682 462.136C213.549 462.256 210.905 462.256 210.15 461.653C209.395 461.049 207.884 459.841 205.807 460.445C204.146 460.928 203.353 461.451 203.164 461.653C201.905 461.17 198.859 460.493 196.744 461.653C194.629 462.812 193.345 464.148 192.968 464.671C192.149 464.792 190.362 464.961 189.758 464.671C189.002 464.309 186.737 463.947 186.359 464.188C186.057 464.381 184.848 464.913 184.282 465.154C181.827 461.612 176.012 454.843 172.386 456.098C171.82 456.38 170.498 456.895 169.743 456.702C168.799 456.461 168.799 459.6 167.666 459.6C166.533 459.6 161.624 453.563 161.624 453.08C161.624 452.693 161.246 454.046 161.057 454.77C158.917 452.355 153.807 447.332 150.483 446.559C150.106 445.593 150.106 441.971 149.162 441.488C148.218 441.005 143.497 439.556 140.665 439.798C140.287 439.798 138.588 436.9 137.266 436.9C135.944 436.9 135.189 437.866 134.812 438.228C134.509 438.518 132.672 438.751 131.79 438.832L129.713 439.798L127.825 436.055C125.685 437.302 120.084 438.735 114.797 434.485C114.167 434.445 112.72 434.509 111.965 435.089L110.076 432.915C109.195 433.438 107.206 434.485 106.3 434.485C105.167 434.485 95.4868 431.12 89.8729 432.915C88.3623 433.398 84.0195 426.516 76.4668 436.538Z" fill="#F5EEE4"/>
</g>
<path fill-rule="evenodd" clip-rule="evenodd" d="M76.4668 121.944V118.679H79.8639C89.7198 124.41 96.149 120.694 99.0581 119.013C99.8255 118.569 100.348 118.267 100.624 118.318C101.734 118.521 120.028 118.212 126.184 118.108H126.184L126.186 118.108C127.356 118.088 128.087 118.076 128.178 118.076C128.631 118.076 128.995 117.03 129.121 116.506C131.688 113.802 138.62 114.896 141.766 115.781L148.937 113.729C154.524 111.604 159.821 114.212 161.771 115.781C169.521 115.085 176.193 115.142 181.012 115.183H181.012C182.882 115.198 184.473 115.212 185.739 115.178C189.468 115.079 196.78 113.015 199.352 112.289L199.352 112.289C199.904 112.133 200.237 112.039 200.271 112.039C200.313 112.039 200.308 112.092 200.3 112.182C200.273 112.498 200.207 113.26 201.969 113.729C203.797 114.216 204.395 113.76 205.649 112.805L205.649 112.804C205.949 112.576 206.287 112.319 206.687 112.039C208.763 110.59 209.896 111.194 210.839 111.918C211.45 112.387 211.428 112.199 211.388 111.844C211.366 111.65 211.339 111.407 211.406 111.194C211.594 110.59 212.16 109.141 213.104 108.054C213.596 107.487 213.626 107.643 213.703 108.042C213.774 108.408 213.883 108.978 214.425 109.382C215.003 109.814 215.188 109.396 215.506 108.674C215.812 107.982 216.24 107.011 217.256 106.243C217.415 106.123 217.562 106.009 217.7 105.902L217.7 105.902C219.364 104.611 219.752 104.311 224.805 105.76C229.502 107.107 231.975 106.854 232.94 106.755C233.099 106.738 233.217 106.726 233.298 106.726C233.646 106.726 234.066 106.863 234.734 107.082C235.151 107.218 235.664 107.386 236.317 107.571C237.546 107.921 238.281 106.943 238.879 106.147C239.108 105.843 239.317 105.565 239.526 105.398C240.13 104.915 242.168 104.955 243.111 105.036C247.329 103.504 250.995 104.175 254.486 104.814C256.774 105.232 258.987 105.637 261.229 105.398C265.367 104.957 266.984 106.257 268.071 107.13C268.472 107.452 268.8 107.715 269.156 107.813C269.728 107.97 270.266 108.013 270.86 108.062C271.636 108.125 272.509 108.195 273.685 108.537C274.958 108.907 275.379 109.777 275.732 110.506C275.955 110.965 276.151 111.369 276.516 111.556C276.913 111.759 277.31 111.513 277.749 111.241C278.354 110.867 279.038 110.444 279.913 111.073C280.767 111.687 283.552 112.457 285.948 113.118C287.788 113.626 289.399 114.071 289.727 114.333L289.774 114.371C290.636 115.062 294.504 118.164 297.464 116.506C300.484 114.816 308.222 114.695 309.731 114.937C311.241 115.178 315.771 114.454 318.79 113.488C320.714 112.872 322.025 113.58 323.358 114.3C324.117 114.71 324.883 115.124 325.773 115.299C327.736 115.685 332.504 115.218 334.643 114.937C335.501 112.56 338.197 114.059 339.947 115.032C340.509 115.344 340.974 115.603 341.249 115.661C342.155 115.854 342.758 115.742 342.947 115.661C344.579 113.004 347.377 115.792 349.049 117.459C349.504 117.913 349.876 118.283 350.119 118.438C350.869 118.918 351.453 118.445 351.872 118.105C352.086 117.932 352.256 117.794 352.383 117.835C352.499 117.871 352.614 118.088 352.777 118.395C353.149 119.095 353.772 120.266 355.214 120.853C356.649 121.438 357.634 120.002 358.416 118.861C358.766 118.351 359.075 117.9 359.366 117.714C359.899 117.373 359.951 117.455 360.132 117.744C360.272 117.966 360.489 118.312 361.065 118.68C362.122 119.356 371.696 118.72 376.352 118.318C383.614 116.262 384.882 116.059 386.81 115.749C387.487 115.64 388.245 115.519 389.374 115.299C392.079 114.772 393.465 115.606 394.536 116.25C395.184 116.639 395.717 116.96 396.357 116.869C397.378 116.723 400.722 116.84 404.047 116.957C406.248 117.033 408.441 117.11 409.945 117.11C412.964 117.11 415.481 110.107 416.361 106.605C422.107 107.407 424.094 105.509 425.907 103.777C427.37 102.379 428.719 101.09 431.837 101.413C432.959 101.53 433.171 101.274 433.471 100.911C433.62 100.732 433.79 100.526 434.102 100.327C434.63 99.9883 434.863 100.029 435.198 100.088C435.46 100.134 435.786 100.191 436.366 100.085C437.141 99.9436 437.85 99.0551 438.457 98.2954C438.885 97.7592 439.262 97.2872 439.575 97.1872C439.875 97.0913 440.204 97.3957 440.623 97.7823C441.258 98.3686 442.098 99.1439 443.349 98.9984C444.867 98.8218 445.78 97.8702 446.53 97.0882C446.805 96.801 447.059 96.5367 447.312 96.342C447.869 95.9143 448.558 96.0337 449.106 96.1287C449.487 96.1947 449.8 96.2489 449.955 96.1005C450.049 96.01 450.143 95.8892 450.258 95.7419L450.258 95.7419C450.603 95.3003 451.134 94.6209 452.408 93.806C453.384 93.1815 454.609 93.9127 455.726 94.5788C456.552 95.0719 457.319 95.5294 457.881 95.3753C458.938 95.0855 460.712 95.2546 461.467 95.3753V97.674V103.586V436.36V440.348V443.605C460.523 443.444 457.69 444.015 453.914 447.589C451.593 447.589 449.47 447.324 447.526 447.081C444.093 446.653 441.22 446.294 438.809 447.589C438.65 447.589 438.319 447.387 437.824 447.084C435.386 445.592 428.969 441.666 419.549 447.589C418.416 448.032 414.904 448.652 409.919 447.589C408.094 447.549 404.293 447.662 403.688 448.434C402.461 450.004 394.436 447.951 387.45 445.416C385.562 444.047 380.879 441.576 377.254 442.639C375.743 443.685 372.345 445.706 370.834 445.416C370.319 445.317 369.116 445.003 367.585 444.603C363.502 443.536 357.085 441.859 355.162 442.035C354.255 442.118 353.059 441.931 351.727 441.722C349.176 441.323 346.125 440.845 343.644 442.035C343.556 442.035 343.509 441.995 343.441 441.938C343.216 441.749 342.762 441.367 339.868 441.552C338.31 441.652 337.105 441.463 336.122 441.31C334.721 441.091 333.769 440.942 332.882 441.793C331.371 443.242 316.266 447.951 313.056 447.831C310.488 447.734 308.713 445.617 308.147 444.571C307.014 444.732 304.748 445.126 304.748 445.416C304.748 445.521 304.635 445.37 304.443 445.112C303.977 444.486 303.041 443.227 302.104 443.484C300.783 443.846 297.762 444.812 297.384 445.416C297.082 445.899 296.125 445.939 295.685 445.899C295.055 446.462 293.645 447.468 293.041 446.985C292.904 446.876 292.749 446.755 292.588 446.63C292.04 446.202 291.431 445.727 291.301 445.521C291.283 445.534 291.264 445.549 291.242 445.565C290.81 445.889 289.522 446.854 288.132 449.521C287.314 449.32 285.677 448.845 285.677 448.555C285.677 448.428 285.377 448.76 284.937 449.245C284.121 450.145 282.826 451.574 282.09 451.574C281.183 451.574 278.943 450.366 277.936 449.763L274.348 452.057C274.046 452.25 272.334 452.137 271.516 452.057C270.257 452.5 266.229 453.023 260.187 451.574L253.956 455.438L250.368 455.679C250.179 456.967 249.575 459.519 248.669 459.422C247.536 459.301 244.704 458.336 244.704 457.973C244.704 457.891 244.665 457.902 244.527 457.942C244.058 458.076 242.447 458.539 237.34 456.766C236.836 456.605 235.603 456.548 234.696 457.611L233.375 457.973C232.368 458.416 230.278 459.374 229.976 459.664C229.598 460.026 228.465 459.664 226.955 457.37C226.892 458.014 226.69 459.277 226.388 459.181C226.137 459.1 225.381 457.893 224.794 456.954C224.5 456.484 224.248 456.082 224.123 455.921C223.745 455.438 222.423 454.472 220.346 455.921C218.685 457.08 217.64 457.531 217.325 457.611L215.815 457.973C215.815 458.094 215.588 458.36 214.682 458.456C213.549 458.577 210.905 458.577 210.15 457.973C209.395 457.37 207.884 456.162 205.807 456.766C204.146 457.249 203.353 457.772 203.164 457.973C201.905 457.49 198.859 456.814 196.744 457.973C194.629 459.132 193.345 460.469 192.968 460.992C192.149 461.113 190.362 461.282 189.758 460.992C189.002 460.63 186.737 460.267 186.359 460.509C186.057 460.702 184.848 461.233 184.282 461.475C181.827 457.933 176.012 451.163 172.386 452.419C171.82 452.701 170.498 453.216 169.743 453.023C169.282 452.905 169.047 453.591 168.794 454.326C168.529 455.097 168.246 455.921 167.666 455.921C166.533 455.921 161.624 449.883 161.624 449.4C161.624 449.014 161.246 450.366 161.057 451.091C158.917 448.676 153.807 443.653 150.483 442.88C150.352 442.544 150.266 441.885 150.17 441.148C149.991 439.771 149.777 438.124 149.162 437.809C148.218 437.326 143.497 435.877 140.665 436.118C140.533 436.118 140.241 435.767 139.861 435.309C139.149 434.451 138.128 433.221 137.266 433.221C136.106 433.221 135.382 433.965 134.967 434.392C134.909 434.451 134.858 434.505 134.812 434.549C134.509 434.839 132.672 435.072 131.79 435.152L129.713 436.118L127.825 432.375C125.685 433.623 120.084 435.056 114.797 430.806C114.167 430.765 112.72 430.83 111.965 431.409L110.076 429.236C109.195 429.759 107.206 430.806 106.3 430.806C106.04 430.806 105.332 430.629 104.326 430.378C100.943 429.534 94.2 427.852 89.8729 429.236C89.5185 429.349 89.0083 429.057 88.3373 428.673C86.1481 427.42 82.2477 425.188 76.4668 432.858V429.24V425.251V126.044V121.944ZM451.031 441.016C451.943 441.152 452.805 441.146 453.401 440.864L451.031 441.016Z" fill="#F5EEE4"/>
<g filter="url(#filter2_d_203_81)">
<path d="M190.004 23.8837L193.906 21.8689L194.157 22.355C191.24 26.1188 195.913 24.9717 195.882 25.2268C195.852 25.4818 198.004 29.0224 198.046 29.1034C198.079 29.1683 198.661 28.9342 198.947 28.8091C200.57 28.4365 200.502 29.7277 200.266 30.4199L201.883 30.8849C203.421 31.103 202.431 32.5741 201.744 33.2825C203.05 34.5576 203.435 35.9322 203.834 36.5473C204.233 37.1624 206.557 37.7409 206.571 37.7679C206.585 37.7949 205.953 37.9842 205.801 38.4734C205.648 38.9626 206.124 38.7854 207.045 38.6861C207.966 38.5868 207.73 38.914 207.416 39.2472C207.101 39.5804 207.507 39.2681 207.841 39.13C208.175 38.9919 208.985 38.6765 209.63 38.5143C210.275 38.352 209.388 38.6734 209.024 39.0666C208.66 39.4599 209.911 38.7453 210.896 38.6129C211.881 38.4806 212.137 38.3485 211.71 39.561C211.283 40.7736 211.784 40.9595 211.826 41.0405C211.867 41.1215 211.731 41.3286 211.601 41.7038C211.471 42.0789 212.614 41.6255 212.989 41.5683C213.29 41.5226 213.419 41.8253 213.446 41.9823C215.306 42.2879 213.855 44.0289 214.593 44.6739C215.331 45.3189 213.993 46.1806 213.899 46.4687C213.805 46.7569 214.016 46.8528 213.85 47.315C213.683 47.7772 212.646 48.2787 212.46 48.5458C212.274 48.813 213.431 48.3865 212.967 48.8998C212.502 49.4131 212.228 50.9227 211.964 51.1959L211.948 51.2133C211.645 51.5256 210.288 52.9274 211.384 52.8976C212.503 52.8673 213.139 53.9415 213.122 54.2236C213.106 54.5057 213.824 54.9556 214.559 55.1235C215.294 55.2913 214.19 56.1349 214.116 56.6181C214.056 57.0046 214.656 57.5593 214.963 57.7882C216.71 57.0915 215.111 58.7035 215.067 58.9316C215.032 59.1141 215.136 59.1697 215.193 59.1746C217.137 58.5469 214.551 60.6003 214.251 60.9605C213.951 61.3207 214.774 61.0324 214.738 61.1194C214.702 61.2065 213.642 61.822 213.348 62.3503C213.054 62.8785 214.929 62.1157 215.318 62.0856C215.708 62.0555 215.282 62.1726 214.932 62.5929C214.652 62.9291 215.696 64.1252 216.253 64.6812C218.449 65.3258 218.046 65.3289 218.814 65.7188C219.583 66.1087 218.245 66.9704 218.499 67.1474C218.752 67.3244 219.096 68.6177 219.375 69.1578C219.598 69.5899 223.494 68.0342 225.414 67.2024C225.414 69.084 229.176 66.7992 229.308 67.9966C229.34 68.284 229.662 68.0535 230.052 68.0233C230.441 67.9932 230.121 68.1584 230.347 68.2814C230.572 68.4043 231.935 67.9058 232.119 67.9477C232.303 67.9897 231.157 68.7523 231.438 68.9833C231.72 69.2143 232.685 68.8869 233.139 68.8237C233.592 68.7606 233.242 69.1808 233.462 69.1357C233.682 69.0907 234.157 68.9134 234.859 68.8591C235.56 68.8049 234.142 69.9816 234.432 70.0716C234.663 70.1435 234.705 70.4436 234.697 70.5847L230.346 72.8307C230.375 72.7817 230.44 72.6662 230.469 72.5966C230.505 72.5095 230.243 72.4736 230.054 72.2636C229.864 72.0536 230.365 71.4531 230.573 71.0719C230.781 70.6907 229.552 71.2913 229.254 71.3424C228.956 71.3935 229.162 71.3214 228.945 71.0574C228.728 70.7933 226.913 71.0459 226.95 70.9589C226.986 70.8719 227.405 70.5867 227.669 70.3136C227.934 70.0404 226.615 70.3109 225.538 70.4222C224.676 70.5113 224.536 69.9473 224.574 69.6542C221.372 70.8285 221.624 69.433 221.362 69.3971C221.101 69.3611 217.707 70.6345 216.564 71.088C215.42 71.5415 215.743 71.0672 215.433 70.7822C215.124 70.4972 214.636 69.5521 214.569 69.1079C214.502 68.6638 214.958 68.2915 215.085 67.4392C215.212 66.5869 212.407 66.8038 212.14 66.5998C211.872 66.3958 211.18 64.4273 211.622 64.0281C212.064 63.6288 209.468 64.2508 209.427 64.1697C209.385 64.0887 210.886 63.074 210.936 63.0139C210.986 62.9539 210.519 62.99 210.385 62.888C210.252 62.786 212.162 61.1499 212.134 61.0959C212.106 61.0419 211.035 61.3213 211.143 61.0602C211.251 60.7991 212.82 59.4422 211.912 59.5685C211.005 59.6948 210.635 59.1337 210.481 58.8366C210.328 58.5396 212.155 57.5277 210.611 57.6752C209.066 57.8227 210.091 55.4126 208.145 55.2541C206.589 55.1273 207.618 53.6567 208.327 52.9373C208.301 52.5742 208.369 51.732 208.842 51.2686C209.316 50.8051 208.874 50.5453 208.594 50.4734C208.9 50.2812 210.346 49.1584 209.95 49.0205C209.634 48.9101 209.932 48.4602 210.12 48.249C211.107 47.2739 210.773 46.5322 210.482 46.2833C210.888 44.4321 209.898 44.0536 209.353 44.0958C209.503 43.9157 209.687 43.5814 209.222 43.6847C208.64 43.814 207.36 43.6883 207.638 43.4421C207.916 43.196 207.938 43.0819 207.501 42.863C207.389 42.647 208.097 40.8792 207.696 40.5732C207.375 40.3284 205.846 40.8098 205.122 41.0811C205.234 41.0351 205.464 40.8638 205.495 40.5468C205.527 40.2116 203.766 41.1212 203.378 41.3288C203.361 41.3398 203.342 41.3505 203.322 41.3607C203.283 41.3811 203.308 41.3665 203.378 41.3288C203.586 41.1981 203.633 41.0212 203.594 40.9465C203.241 40.8896 202.45 40.771 202.116 40.7519C201.782 40.7328 202.233 40.0876 202.499 39.7674C201.856 39.6206 199.854 38.5678 199.999 38.2196C200.143 37.8715 199.566 37.3825 199.371 37.0044C199.215 36.702 198.329 35.7183 197.906 35.2643C200.538 32.6736 196.428 32.4017 196.386 32.3207C196.344 32.2397 197.112 31.8433 196.332 31.1173C195.552 30.3913 194.74 31.0157 194.548 31.1148C194.394 31.1941 194.382 30.9498 194.394 30.8178C192.164 29.1648 192.71 27.241 192.15 27.2562C191.703 27.2683 190.511 27.1676 189.971 27.1158C188.182 26.9452 190.269 24.3968 190.213 24.2888L190.004 23.8837Z" fill="#F2C986" fill-opacity="0.8" shape-rendering="crispEdges"/>
</g>
<g filter="url(#filter3_d_203_81)">
<path d="M23.1615 110.026L27.1918 107.945C28.8213 107.492 31.5993 107.066 29.6757 108.99C29.7249 109.033 29.842 109.281 29.9162 109.927C30.0091 110.734 29.9254 110.572 30.0625 111.151C30.1996 111.731 30.7287 111.971 30.9764 111.98C30.7077 112.244 30.1631 112.79 30.1342 112.86C30.0982 112.947 31.1636 112.499 30.6633 113.1C30.1631 113.7 29.2743 115.117 30.2209 115.382C30.2544 115.446 30.7636 115.386 31.0141 115.348C30.455 115.626 29.3308 116.231 29.3065 116.435C29.2762 116.691 29.2786 116.381 29.7159 116.6C30.1531 116.82 29.7274 116.937 30.3787 116.943C31.03 116.949 31.5557 116.711 30.9636 117.291C30.3715 117.87 29.7063 117.837 29.8376 118.249C29.9689 118.66 30.7491 119.386 29.6895 120.002C28.6299 120.617 27.9623 120.894 27.5144 121.125C27.0666 121.356 26.6314 122.71 23.8455 125.004C24.004 124.945 24.3879 124.799 24.655 124.689C24.9888 124.551 22.5252 126.37 22.1389 126.878C21.7527 127.385 22.1505 127.214 22.846 126.992C23.5415 126.769 23.6974 126.757 23.7171 126.952C23.7368 127.148 23.7426 127.316 23.9264 127.358C24.1101 127.4 25.4256 126.652 23.4877 128.234L23.4877 128.234C21.5498 129.817 20.5238 130.654 20.5157 130.796C20.5075 130.937 20.3295 131.063 20.7249 131.201C21.1203 131.339 21.0145 131.291 21.2237 131.696C21.433 132.101 22.0366 131.858 23.1194 131.915C24.2021 131.972 23.3844 132.428 23.5379 132.726C23.6913 133.023 24.409 132.687 24.3484 133.197C24.2878 133.707 23.8097 134.194 24.1132 134.311C24.4167 134.428 23.6793 134.569 24.3364 134.743C24.9934 134.917 26.0867 134.524 26.1983 134.74C26.3099 134.956 26.0156 135.484 25.2118 135.968C24.5689 136.355 24.6066 136.417 24.7058 136.4L25.36 136.145C25.4158 136.122 25.4684 136.102 25.5154 136.085L25.36 136.145C24.9824 136.303 24.4576 136.595 24.5394 136.863C24.6568 137.247 25.0127 136.995 25.3023 137.085C25.534 137.157 25.7663 137.199 25.8535 137.211C26.0307 137.188 26.3906 137.152 26.4129 137.196C26.4408 137.25 26.8305 137.22 26.4779 137.949C26.1253 138.679 26.3173 138.58 26.387 138.715C26.4568 138.85 26.1287 139.156 26.1706 139.237C26.2124 139.318 25.6925 139.724 26.3519 139.588C27.0114 139.453 27.0532 139.534 27.693 139.204C28.2047 138.94 28.3699 138.946 28.3885 138.982C28.1493 139.094 27.9213 139.332 28.9234 139.39C29.9254 139.448 30.6489 139.332 30.8854 139.267C30.8693 139.811 30.9136 140.922 31.2188 141.011C31.5239 141.1 31.8134 141.012 31.9201 140.957C31.782 141.108 31.5655 141.4 31.8037 141.359C32.1014 141.308 32.541 141.218 32.7806 141.368C33.0201 141.518 32.0548 141.846 32.3641 142.131C32.6733 142.416 32.9432 142.311 33.5666 142.263C34.1899 142.215 32.6907 142.92 33.8037 142.722C34.9167 142.524 36.4718 141.926 36.2217 142.226C35.9716 142.527 35.5017 142.872 35.8691 142.956C36.1631 143.023 36.5057 143.038 36.6402 143.037C37.143 143.017 38.1014 143.042 37.9124 143.304C37.7235 143.566 37.3668 143.974 37.2121 144.145C37.6583 144.12 38.2832 144.242 37.2131 144.931C36.3058 145.685 35.7709 147.223 40.89 147.345C40.9318 147.426 42.838 147.194 41.6293 148.777C42.2054 148.742 43.2265 148.951 42.7025 150.071C42.8032 150.475 42.9473 151.361 42.7184 151.671C42.4322 152.058 41.918 152.631 42.1133 153.01C42.3086 153.388 42.134 153.991 42.9772 153.898C43.8204 153.805 44.0845 153.532 44.2379 153.829C44.3914 154.126 44.2505 154.952 43.8282 155.546C43.4059 156.141 43.3246 155.67 43.2116 156.549C43.0985 157.429 42.1481 158.57 42.6772 158.81C43.2063 159.05 43.3146 158.789 43.4877 159.281C43.6609 159.773 43.7514 160.89 44.3945 161.037C45.0376 161.184 48.4522 160.893 46.0872 163.688C46.5124 163.936 47.25 164.559 46.7986 165.066C46.5404 165.507 46.2224 166.335 47.017 166.117C48.0103 165.844 49.9805 165.579 49.7501 166.075L45.9118 168.056C45.9273 167.877 45.4153 167.628 43.2427 168.066C42.7684 167.147 43.4804 165.89 42.1267 165.904C42.0569 165.769 45.3152 162.821 40.7038 163.148C40.3855 163.107 39.7977 162.774 39.9924 161.77C39.8788 161.498 39.5383 160.985 39.0842 161.11C38.1619 161.364 38.6566 159.654 39.4838 157.961C40.0694 157.316 41.0327 155.97 40.2019 155.742C39.5359 155.812 38.2143 155.878 38.2562 155.583C38.3087 155.214 39.2129 152.728 38.8896 152.416C38.5664 152.103 39.2773 150.812 38.0387 150.767C38.0108 150.713 38.4225 150.569 38.0156 150.095C37.6086 149.621 38.2508 148.981 37.3715 149.161C36.4922 149.342 32.8813 148.468 32.7081 147.976C32.5696 147.582 33.5601 146.749 34.0727 146.382C33.9037 146.264 33.5273 146.047 33.3738 146.127C33.1819 146.226 34.4916 145.31 34.2021 145.22C33.9125 145.13 33.1775 144.962 32.8297 145.073C32.5515 145.162 32.4595 145.036 32.4483 144.962C32.1033 145.026 31.466 145.099 31.6773 144.881C31.8886 144.662 32.196 144.328 32.3247 144.231C32.1526 144.255 31.5638 144.314 29.9711 144.872C30.0173 144.7 30.148 144.336 30.3016 144.256C30.4935 144.157 28.5209 144.731 28.4372 144.569C28.3703 144.439 28.8444 143.788 29.0899 143.479L27.6094 143.593C27.4847 143.603 27.4179 143.327 27.4001 143.188C27.0726 143.129 26.4978 142.696 26.819 141.435L24.3116 141.6L23.9186 141.153C23.2223 141.478 21.8257 142.09 21.8099 141.933C21.7902 141.738 22.0927 141.069 22.2846 140.97C22.4765 140.871 21.6531 141.159 22.3803 139.586C22.4284 139.47 22.3671 139.278 21.7372 139.439L21.4476 139.349C21.1387 139.326 20.4768 139.289 20.3009 139.325C20.0811 139.37 20.1893 139.109 21.2932 138.265C20.9474 138.432 20.2629 138.749 20.2918 138.679C20.3278 138.592 21.6236 137.649 21.8516 137.463C22.0796 137.277 22.4937 136.824 21.5726 136.923C20.8357 137.002 20.5197 136.976 20.4538 136.953L20.1503 136.836C20.0863 136.869 19.9288 136.909 19.8107 136.806C19.663 136.677 19.4677 136.299 19.7318 136.025C19.9959 135.752 20.524 135.206 20.0507 135.074C19.672 134.968 19.3362 134.998 19.2156 135.026C19.3785 134.713 19.5117 134.093 18.7413 134.107C17.971 134.122 17.1682 134.303 16.863 134.392C16.7386 134.308 16.517 134.099 16.6259 133.933C16.762 133.726 16.7865 133.303 16.6307 133.315C16.506 133.324 16.1353 133.297 15.9655 133.282C17.6606 131.962 20.8177 129.278 19.8845 129.102C19.6934 129.098 19.3228 129.05 19.3694 128.889C19.4276 128.688 17.7643 129.547 17.6806 129.385C17.5969 129.223 20.4328 126.869 20.6887 126.737C20.8934 126.631 20.149 126.947 19.7512 127.118C20.8726 126.151 23.1563 124.046 23.3202 123.359C23.8041 123.041 25.7232 122.05 25.9094 121.783C26.0955 121.515 26.5144 120.444 26.1772 120.104C26.1493 120.05 27.5591 119.014 27.4615 118.825C27.3638 118.636 26.7962 118.792 26.5764 118.837C26.4006 118.873 26.1411 118.674 26.0334 118.57L25.3681 118.537L27.2118 117.243C26.3926 117.278 25.2197 116.869 27.0809 114.949C27.0557 114.848 26.9146 114.659 26.5518 114.709L27.5638 113.845C27.2215 113.862 26.5201 113.863 26.4531 113.734C26.3694 113.572 27.4369 111.266 26.0711 110.954C25.7037 110.87 29.0292 108.366 23.1615 110.026Z" fill="#F2C986" fill-opacity="0.8" shape-rendering="crispEdges"/>
</g>
<path fill-rule="evenodd" clip-rule="evenodd" d="M51.6993 165.068L228.008 74.0382L228.008 74.0383L232.358 71.7922C232.366 71.6512 232.324 71.3511 232.093 71.2791C231.97 71.2409 232.155 71.006 232.356 70.7529C232.626 70.4109 232.923 70.0355 232.52 70.0667C231.994 70.1074 231.595 70.2173 231.335 70.2887L231.335 70.2887C231.249 70.3125 231.178 70.332 231.123 70.3433C231.033 70.3618 231.039 70.3022 231.045 70.2297C231.055 70.1252 231.068 69.994 230.8 70.0313C230.678 70.0483 230.519 70.0843 230.347 70.1234L230.347 70.1235C229.877 70.2301 229.305 70.3598 229.1 70.1908C228.93 70.0516 229.279 69.7194 229.542 69.4681C229.716 69.3024 229.853 69.172 229.78 69.1553C229.704 69.1379 229.426 69.2131 229.111 69.2985L229.111 69.2985C228.663 69.4195 228.14 69.561 228.008 69.4889C227.909 69.4349 227.915 69.3726 227.92 69.3225C227.927 69.2585 227.931 69.214 227.713 69.2309C227.584 69.2409 227.463 69.2727 227.357 69.3005L227.357 69.3006C227.142 69.3569 226.991 69.3966 226.97 69.2041C226.911 68.6695 226.128 68.8291 225.279 69.0021C224.228 69.2165 223.075 69.4515 223.075 68.41C221.155 69.2418 217.259 70.7975 217.036 70.3654C216.925 70.1502 216.803 69.8155 216.681 69.4794C216.497 68.9719 216.312 68.4614 216.16 68.355C216.064 68.2883 216.195 68.1244 216.353 67.9252C216.615 67.5956 216.955 67.1694 216.476 66.9264C216.276 66.825 216.155 66.7498 216.048 66.6827C215.741 66.4915 215.54 66.3658 213.914 65.8888C213.357 65.3327 212.313 64.1366 212.593 63.8004C212.746 63.6173 212.912 63.4918 213.02 63.4108C213.159 63.3061 213.199 63.2762 212.979 63.2932C212.859 63.3025 212.597 63.3816 212.301 63.471C211.639 63.6712 210.806 63.923 211.009 63.5578C211.214 63.1907 211.788 62.7814 212.131 62.5367C212.282 62.4293 212.388 62.3536 212.399 62.327C212.412 62.2976 212.326 62.311 212.218 62.3278C212.008 62.3607 211.713 62.4067 211.912 62.1681C211.976 62.091 212.145 61.9364 212.352 61.7471C213.112 61.0518 214.382 59.8888 212.854 60.3822C212.797 60.3772 212.693 60.3216 212.728 60.1392C212.739 60.0838 212.841 59.9467 212.965 59.7809L212.965 59.7809C213.352 59.2641 213.947 58.4683 212.624 58.9958C212.317 58.7668 211.717 58.2122 211.777 57.8257C211.804 57.6504 211.966 57.4276 212.128 57.2069L212.128 57.2069C212.41 56.8193 212.689 56.438 212.221 56.331C211.486 56.1632 210.767 55.7132 210.784 55.4311C210.8 55.149 210.164 54.0749 209.046 54.1052C207.949 54.1349 209.306 52.7331 209.609 52.4208L209.625 52.4035C209.74 52.2848 209.857 51.9327 209.99 51.5304L209.99 51.5304C210.164 51.0066 210.365 50.3977 210.628 50.1074C210.897 49.8101 210.622 49.828 210.379 49.8439C210.202 49.8554 210.042 49.8658 210.121 49.7534C210.193 49.6501 210.392 49.5117 210.619 49.3541C210.979 49.1042 211.409 48.806 211.511 48.5226C211.605 48.2608 211.578 48.1165 211.554 47.9882C211.536 47.89 211.519 47.8012 211.56 47.6763C211.586 47.5987 211.701 47.4796 211.842 47.3343C212.224 46.9399 212.793 46.3529 212.254 45.8815C211.962 45.626 212.013 45.1987 212.065 44.7567C212.146 44.0826 212.23 43.3745 211.107 43.1899C211.08 43.0329 210.951 42.7302 210.651 42.7759C210.547 42.7917 210.384 42.8378 210.206 42.8883L210.206 42.8883C209.74 43.0205 209.168 43.1828 209.262 42.9114C209.312 42.7672 209.363 42.6478 209.405 42.5509L209.405 42.5509C209.471 42.3956 209.513 42.2979 209.487 42.2481C209.481 42.2366 209.466 42.223 209.445 42.2047C209.322 42.0937 209.004 41.8093 209.371 40.7686C209.766 39.6491 209.578 39.6758 208.771 39.7907L208.771 39.7907C208.704 39.8002 208.633 39.8104 208.558 39.8205C208.075 39.8853 207.529 40.0895 207.14 40.2351L207.14 40.2351C206.734 40.387 206.499 40.475 206.685 40.2742C206.859 40.0861 207.153 39.9144 207.342 39.8043C207.547 39.6842 207.628 39.6372 207.291 39.7218C206.646 39.8841 205.836 40.1994 205.502 40.3376C205.385 40.3864 205.258 40.4569 205.157 40.513L205.157 40.513C204.972 40.6157 204.874 40.6702 205.077 40.4547C205.391 40.1215 205.627 39.7943 204.706 39.8936C204.528 39.9128 204.367 39.9349 204.224 39.9545L204.224 39.9545C203.625 40.0365 203.339 40.0757 203.462 39.6809C203.581 39.3003 203.989 39.1013 204.158 39.019C204.206 38.9955 204.235 38.9815 204.232 38.9755C204.23 38.9707 204.155 38.9487 204.032 38.9124L204.032 38.9124C203.457 38.743 201.823 38.2613 201.495 37.7548C201.384 37.5829 201.273 37.3516 201.144 37.0796C200.809 36.3789 200.346 35.4086 199.405 34.49C200.092 33.7817 201.082 32.3105 199.544 32.0925L197.927 31.6275C198.164 30.9353 198.231 29.6441 196.608 30.0166C196.322 30.1418 195.741 30.3758 195.707 30.311C195.7 30.2981 195.64 30.1967 195.543 30.0346L195.543 30.0345C195.033 29.1821 193.518 26.6486 193.543 26.4343C193.55 26.3811 193.351 26.3889 193.06 26.4004C191.954 26.4441 189.51 26.5407 191.818 23.5625L191.567 23.0764L189.837 23.9696L189.837 23.9696L27.0278 108.03L25.1107 109.02C29.6019 107.749 28.7072 108.918 28.2051 109.574C28.0512 109.775 27.9341 109.928 28.0203 109.947C29.0731 110.188 28.6802 111.613 28.4831 112.328C28.4244 112.54 28.3831 112.69 28.4023 112.727C28.4693 112.857 29.1707 112.855 29.513 112.838L28.501 113.703C28.8638 113.652 29.0049 113.842 29.0301 113.943C27.1688 115.862 28.3418 116.272 29.161 116.237L27.3173 117.531L27.9826 117.564C28.0903 117.668 28.3498 117.867 28.5256 117.831C28.5524 117.825 28.5844 117.818 28.6201 117.81C28.877 117.753 29.3249 117.653 29.4107 117.819C29.4743 117.942 28.8978 118.425 28.4961 118.761C28.2814 118.941 28.1167 119.079 28.1264 119.098C28.4636 119.437 28.0447 120.509 27.8586 120.776C27.7373 120.95 26.8802 121.432 26.1638 121.834C25.7808 122.049 25.438 122.242 25.2694 122.353C25.1055 123.039 22.8218 125.145 21.7004 126.112C22.0982 125.94 22.8426 125.624 22.6379 125.73C22.382 125.862 19.5461 128.216 19.6298 128.378C19.6727 128.461 20.13 128.277 20.5582 128.104C20.9658 127.939 21.347 127.785 21.3186 127.883C21.272 128.044 21.6426 128.092 21.8337 128.096C22.7669 128.271 19.6098 130.955 17.9146 132.275C18.0844 132.29 18.4552 132.318 18.5799 132.308C18.7357 132.296 18.7112 132.72 18.5751 132.927C18.4662 133.092 18.6878 133.302 18.8122 133.386C19.1174 133.297 19.9202 133.115 20.6905 133.101C21.4609 133.086 21.3277 133.707 21.1648 134.019C21.2854 133.991 21.6212 133.962 21.9999 134.067C22.4732 134.199 21.9451 134.746 21.681 135.019C21.4169 135.292 21.6122 135.67 21.7599 135.8C21.878 135.903 22.0355 135.863 22.0995 135.83L22.403 135.947C22.4689 135.97 22.7849 135.996 23.5218 135.916C24.4429 135.817 24.0288 136.271 23.8008 136.457C23.7248 136.519 23.5302 136.665 23.3031 136.836C22.8489 137.176 22.265 137.615 22.241 137.673C22.2121 137.743 22.8965 137.426 23.2424 137.258C22.1385 138.102 22.0303 138.363 22.2501 138.318C22.426 138.282 23.0878 138.319 23.3968 138.342L23.6864 138.432C24.3163 138.271 24.3776 138.463 24.3295 138.579C23.7675 139.795 24.1316 139.899 24.2375 139.929C24.2686 139.938 24.2774 139.941 24.2338 139.963C24.0419 140.062 23.7394 140.732 23.7591 140.927C23.7749 141.083 25.1715 140.472 25.8678 140.146L26.2608 140.594L28.7682 140.428C28.447 141.689 29.0218 142.123 29.3493 142.182C29.3671 142.321 29.4339 142.596 29.5586 142.587L31.0391 142.473C30.7936 142.782 30.3195 143.433 30.3864 143.562C30.4408 143.668 31.2934 143.462 31.8307 143.333C32.12 143.263 32.3179 143.215 32.2508 143.25C32.0972 143.329 31.9665 143.693 31.9203 143.866C33.4363 143.335 34.0428 143.255 34.2461 143.228C34.2563 143.227 34.2656 143.226 34.2739 143.225C34.1743 143.3 33.9678 143.517 33.7816 143.712C33.7271 143.769 33.6743 143.825 33.6265 143.874C33.4152 144.093 34.0525 144.019 34.3975 143.955C34.4087 144.029 34.5007 144.155 34.7789 144.066C35.1267 143.955 35.8617 144.123 36.1512 144.213C36.3564 144.277 35.7589 144.755 35.4612 144.994C35.3387 145.092 35.267 145.149 35.323 145.12C35.4765 145.041 35.8529 145.257 36.0219 145.375C35.5093 145.743 34.5188 146.576 34.6573 146.97C34.8305 147.462 38.4414 148.335 39.3207 148.155C39.8372 148.049 39.8287 148.226 39.8163 148.486C39.8076 148.669 39.7969 148.893 39.9648 149.089C40.2766 149.452 40.1077 149.622 40.0243 149.705C39.9988 149.731 39.9814 149.748 39.9879 149.761C40.8015 149.791 40.7739 150.358 40.7508 150.832C40.7387 151.08 40.7279 151.302 40.8388 151.409C41.0739 151.636 40.6598 153.013 40.3962 153.889C40.2974 154.218 40.2197 154.476 40.2054 154.577C40.1635 154.872 41.4851 154.806 42.1511 154.735C42.9819 154.964 42.0185 156.31 41.433 156.954C40.6058 158.647 40.1111 160.357 41.0334 160.103C41.4875 159.979 41.828 160.492 41.9416 160.764C41.7469 161.768 42.3347 162.101 42.653 162.142C46.4871 161.869 44.8809 163.862 44.2706 164.619C44.1469 164.772 44.0641 164.875 44.0759 164.898C44.9402 164.888 44.9624 165.398 44.989 166.006C45.004 166.351 45.0204 166.727 45.1919 167.059C47.3644 166.622 47.8765 166.871 47.861 167.05L51.6993 165.068ZM48.7168 165.146L48.4616 164.849C48.457 165.016 48.5234 165.138 48.7168 165.146Z" fill="#F2C986" fill-opacity="0.8"/>
<g clip-path="url(#clip0_203_81)">
<path d="M413.967 461.969C438.441 461.969 458.282 442.129 458.282 417.654C458.282 393.18 438.441 373.339 413.967 373.339C389.492 373.339 369.652 393.18 369.652 417.654C369.652 442.129 389.492 461.969 413.967 461.969Z" fill="#F2C986"/>
<path d="M413.967 490.154C410.416 490.156 406.865 488.862 404.099 486.276C401.152 483.524 396.931 482.561 393.084 483.761C385.856 486.023 378.044 482.258 375.302 475.198C373.842 471.44 370.457 468.741 366.468 468.154C358.975 467.051 353.569 460.273 354.162 452.725C354.478 448.704 352.6 444.805 349.26 442.544C342.989 438.301 341.059 429.847 344.868 423.303C346.896 419.818 346.896 415.489 344.868 412.004C341.059 405.46 342.988 397.008 349.26 392.763C352.6 390.502 354.478 386.602 354.162 382.582C353.569 375.032 358.975 368.254 366.468 367.152C370.457 366.566 373.84 363.866 375.302 360.107C378.045 353.049 385.856 349.29 393.084 351.544C396.929 352.746 401.152 351.782 404.099 349.031C409.633 343.862 418.306 343.862 423.835 349.031C426.783 351.784 431.006 352.747 434.85 351.544C442.081 349.29 449.89 353.05 452.633 360.109C454.092 363.867 457.478 366.566 461.467 367.154C468.959 368.256 474.364 375.034 473.773 382.584C473.457 386.603 475.336 390.504 478.675 392.764C484.946 397.008 486.876 405.46 483.066 412.006C481.039 415.49 481.039 419.821 483.066 423.304C486.876 429.849 484.946 438.302 478.675 442.546C475.336 444.806 473.457 448.705 473.773 452.726C474.363 460.278 468.959 467.056 461.467 468.156C457.478 468.743 454.093 471.443 452.632 475.2C449.89 482.258 442.082 486.023 434.852 483.763C431.003 482.564 426.783 483.526 423.836 486.278C421.069 488.862 417.518 490.154 413.967 490.154ZM396.419 480.032C400.034 480.032 403.586 481.387 406.3 483.922C410.6 487.939 417.337 487.939 421.636 483.922C425.427 480.378 430.861 479.139 435.812 480.687C441.439 482.439 447.499 479.518 449.627 474.032C451.507 469.195 455.864 465.722 460.997 464.968C466.818 464.112 471.018 458.844 470.559 452.978C470.153 447.803 472.569 442.783 476.868 439.876C481.741 436.578 483.24 430.011 480.28 424.925C477.672 420.441 477.672 414.869 480.28 410.385C483.24 405.299 481.741 398.732 476.868 395.434C472.569 392.526 470.153 387.505 470.559 382.332C471.018 376.466 466.818 371.199 460.997 370.342C455.864 369.587 451.506 366.113 449.627 361.277C447.497 355.792 441.439 352.87 435.812 354.623C430.861 356.168 425.427 354.929 421.636 351.388C417.336 347.369 410.598 347.371 406.3 351.388C402.507 354.93 397.078 356.169 392.123 354.623C386.505 352.867 380.436 355.792 378.306 361.277C376.428 366.113 372.071 369.587 366.938 370.342C361.116 371.199 356.916 376.466 357.378 382.332C357.784 387.505 355.366 392.526 351.069 395.434C346.195 398.732 344.697 405.299 347.657 410.385C350.267 414.87 350.267 420.443 347.657 424.925C344.697 430.011 346.197 436.578 351.069 439.876C355.367 442.783 357.784 447.803 357.378 452.978C356.917 458.844 361.118 464.111 366.938 464.968C372.071 465.722 376.428 469.197 378.306 474.032C380.438 479.518 386.509 482.435 392.123 480.687C393.531 480.246 394.98 480.032 396.419 480.032Z" fill="#400113"/>
<path d="M413.967 471.638C400.58 471.638 387.74 466.703 377.81 457.74C377.15 457.144 377.098 456.126 377.694 455.465C378.29 454.805 379.307 454.752 379.969 455.349C389.306 463.775 401.379 468.415 413.967 468.415C441.957 468.415 464.728 445.644 464.728 417.654C464.728 389.664 441.957 366.893 413.967 366.893C385.977 366.893 363.206 389.664 363.206 417.654C363.206 424.584 364.577 431.3 367.28 437.614C367.63 438.433 367.251 439.38 366.433 439.73C365.614 440.084 364.669 439.699 364.317 438.882C361.441 432.164 359.983 425.022 359.983 417.653C359.983 387.886 384.2 363.669 413.967 363.669C443.734 363.669 467.95 387.886 467.95 417.653C467.952 447.421 443.734 471.638 413.967 471.638Z" fill="#400113"/>
</g>
<defs>
<filter id="filter0_d_203_81" x="61.4668" y="68.1542" width="415" height="65.7211" filterUnits="userSpaceOnUse" color-interpolation-filters="sRGB">
<feFlood flood-opacity="0" result="BackgroundImageFix"/>
<feColorMatrix in="SourceAlpha" type="matrix" values="0 0 0 0 0 0 0 0 0 0 0 0 0 0 0 0 0 0 127 0" result="hardAlpha"/>
<feOffset dy="-6"/>
<feGaussianBlur stdDeviation="7.5"/>
<feComposite in2="hardAlpha" operator="out"/>
<feColorMatrix type="matrix" values="0 0 0 0 0 0 0 0 0 0 0 0 0 0 0 0 0 0 0.1 0"/>
<feBlend mode="normal" in2="BackgroundImageFix" result="effect1_dropShadow_203_81"/>
<feBlend mode="normal" in="SourceGraphic" in2="effect1_dropShadow_203_81" result="shape"/>
</filter>
<filter id="filter1_d_203_81" x="61.4668" y="415.217" width="415" height="70.9373" filterUnits="userSpaceOnUse" color-interpolation-filters="sRGB">
<feFlood flood-opacity="0" result="BackgroundImageFix"/>
<feColorMatrix in="SourceAlpha" type="matrix" values="0 0 0 0 0 0 0 0 0 0 0 0 0 0 0 0 0 0 127 0" result="hardAlpha"/>
<feOffset dy="6"/>
<feGaussianBlur stdDeviation="7.5"/>
<feComposite in2="hardAlpha" operator="out"/>
<feColorMatrix type="matrix" values="0 0 0 0 0 0 0 0 0 0 0 0 0 0 0 0 0 0 0.1 0"/>
<feBlend mode="normal" in2="BackgroundImageFix" result="effect1_dropShadow_203_81"/>
<feBlend mode="normal" in="SourceGraphic" in2="effect1_dropShadow_203_81" result="shape"/>
</filter>
<filter id="filter2_d_203_81" x="174.245" y="0.868896" width="75.811" height="80.9618" filterUnits="userSpaceOnUse" color-interpolation-filters="sRGB">
<feFlood flood-opacity="0" result="BackgroundImageFix"/>
<feColorMatrix in="SourceAlpha" type="matrix" values="0 0 0 0 0 0 0 0 0 0 0 0 0 0 0 0 0 0 127 0" result="hardAlpha"/>
<feOffset dy="-6"/>
<feGaussianBlur stdDeviation="7.5"/>
<feComposite in2="hardAlpha" operator="out"/>
<feColorMatrix type="matrix" values="0 0 0 0 0 0 0 0 0 0 0 0 0 0 0 0 0 0 0.1 0"/>
<feBlend mode="normal" in2="BackgroundImageFix" result="effect1_dropShadow_203_81"/>
<feBlend mode="normal" in="SourceGraphic" in2="effect1_dropShadow_203_81" result="shape"/>
</filter>
<filter id="filter3_d_203_81" x="0.965576" y="98.5603" width="63.803" height="90.5052" filterUnits="userSpaceOnUse" color-interpolation-filters="sRGB">
<feFlood flood-opacity="0" result="BackgroundImageFix"/>
<feColorMatrix in="SourceAlpha" type="matrix" values="0 0 0 0 0 0 0 0 0 0 0 0 0 0 0 0 0 0 127 0" result="hardAlpha"/>
<feOffset dy="6"/>
<feGaussianBlur stdDeviation="7.5"/>
<feComposite in2="hardAlpha" operator="out"/>
<feColorMatrix type="matrix" values="0 0 0 0 0 0 0 0 0 0 0 0 0 0 0 0 0 0 0.1 0"/>
<feBlend mode="normal" in2="BackgroundImageFix" result="effect1_dropShadow_203_81"/>
<feBlend mode="normal" in="SourceGraphic" in2="effect1_dropShadow_203_81" result="shape"/>
</filter>
<clipPath id="clip0_203_81">
<rect width="145" height="145" fill="white" transform="translate(341.467 345.154)"/>
</clipPath>
</defs>
</svg>
