<svg width="416" height="419" viewBox="0 0 416 419" fill="none" xmlns="http://www.w3.org/2000/svg">
<g filter="url(#filter0_d_83_93)">
<path d="M15.4668 53.6297V46.2642H18.8639C31.3197 53.5078 38.3026 45.6616 39.6237 45.9031C40.9447 46.1446 66.6114 45.6616 67.1776 45.6616C67.6305 45.6616 67.9954 44.6152 68.1212 44.0919C70.6879 41.3873 77.6204 42.4813 80.7658 43.3664L87.9374 41.3148C93.5237 39.1897 98.8206 41.797 100.771 43.3664C111.528 42.4005 120.209 42.8845 124.739 42.7638C129.268 42.643 139.082 39.6244 139.271 39.6244C139.459 39.6244 138.705 40.7111 140.969 41.3148C143.234 41.9185 143.611 41.0733 145.687 39.6244C147.763 38.1754 148.896 38.7792 149.839 39.5036C150.783 40.2281 150.217 39.3829 150.406 38.7792C150.594 38.1754 151.16 36.7265 152.104 35.6398C153.048 34.5531 152.293 36.1228 153.425 36.968C154.557 37.8132 154.18 35.3983 156.256 33.8286C158.332 32.2589 158.332 31.776 163.805 33.3456C169.278 34.9153 171.732 34.3116 172.298 34.3116C172.864 34.3116 173.619 34.6738 175.317 35.1568C177.016 35.6398 177.771 33.5871 178.526 32.9834C179.13 32.5004 181.168 32.5407 182.111 32.6212C189.094 30.0855 194.567 33.5871 200.229 32.9834C205.891 32.3797 206.834 35.0361 208.156 35.3983C209.477 35.7605 210.609 35.5191 212.685 36.1228C214.761 36.7265 214.572 38.6584 215.516 39.1414C216.459 39.6244 217.403 37.5717 218.913 38.6584C220.423 39.7451 227.972 41.3148 228.727 41.9185L228.774 41.9569C229.636 42.6478 233.504 45.7493 236.464 44.0919C239.484 42.4015 247.222 42.2808 248.731 42.5223C250.241 42.7638 254.771 42.0393 257.79 41.0733C260.81 40.1074 262.32 42.4015 264.773 42.8845C266.736 43.2709 271.504 42.804 273.643 42.5223C274.776 39.3829 279.116 43.0052 280.249 43.2467C281.155 43.4399 281.758 43.3272 281.947 43.2467C284.023 39.8659 287.986 45.2994 289.119 46.0239C290.251 46.7483 291.006 45.2994 291.383 45.4201C291.761 45.5409 292.138 47.5936 294.214 48.4388C296.29 49.284 297.423 45.9031 298.366 45.2994C299.31 44.6957 298.744 45.4201 300.065 46.2654C301.122 46.9415 310.696 46.3056 315.352 45.9031C325.165 43.126 324.033 43.7297 328.374 42.8845C332.714 42.0393 333.658 44.6957 335.357 44.4542C337.055 44.2127 345.17 44.6957 348.945 44.6957C351.964 44.6957 354.481 37.6925 355.361 34.1909C365.741 35.6398 363.854 28.2744 370.837 28.9988C372.514 29.1728 372.158 28.5158 373.102 27.9121C374.045 27.3084 374.045 27.9121 375.366 27.6706C376.687 27.4291 377.82 25.0142 378.575 24.7728C379.33 24.5313 380.273 26.8254 382.349 26.5839C384.425 26.3424 385.369 24.652 386.312 23.9275C387.256 23.2031 388.577 24.0483 388.955 23.686C389.332 23.3238 389.709 22.4782 391.408 21.3915C393.107 20.3048 395.56 23.3231 396.881 22.9608C397.938 22.6711 399.712 22.8401 400.467 22.9608V31.1715C400.278 31.091 399.825 30.9059 399.523 30.8093C399.146 30.6885 398.202 31.0508 396.504 31.1715C394.805 31.2922 392.918 30.0843 391.408 29.4806C389.898 28.8769 389.709 31.171 389.143 31.654C388.577 32.137 388.766 31.7748 386.69 31.8955C384.614 32.0162 380.839 34.9141 380.462 34.7934C380.084 34.6726 379.707 33.8277 378.952 33.224C378.197 32.6202 375.932 34.7936 373.479 36.4841C371.516 37.8364 368.006 37.611 366.496 37.3293C363.854 43.0043 356.871 41.5554 355.928 41.9176C354.984 42.2798 352.342 48.3171 351.587 50.3697C350.832 52.4224 349.133 51.5772 346.68 51.8187C344.227 52.0602 337.621 52.0602 334.979 51.8187C332.337 51.5772 331.582 50.6112 327.241 49.766C322.901 48.9208 316.107 53.2676 314.219 53.5091C312.332 53.7506 299.499 53.2676 298.555 52.3017C297.611 51.3357 293.648 55.6825 293.082 55.6825C292.516 55.6825 291.195 52.6639 291.006 52.5432C290.817 52.4224 289.685 53.1469 288.741 53.2676C287.798 53.3884 284.212 49.283 283.834 49.283C283.457 49.283 281.947 51.0942 280.815 50.732C279.682 50.3697 276.663 46.9889 274.776 48.4378C272.888 49.8868 268.736 50.0075 266.66 50.0075C264.584 50.0075 264.207 46.5059 260.621 48.9208C257.035 51.3357 246.656 47.9548 240.239 50.732C235.106 52.9537 229.922 50.2892 227.972 48.6793C225.896 48.4378 221.442 47.6892 220.234 46.6266C219.026 45.5641 216.334 46.0229 215.138 46.3852C214.95 45.7814 212.874 42.7628 210.986 43.2458C209.477 43.6322 207.841 42.843 207.212 42.4001C204.645 40.1779 199.6 40.1057 197.398 40.3474C188.339 38.3187 183.432 39.5021 182.111 40.3474C181.545 39.9852 180.224 39.4539 179.469 40.2267C178.526 41.1926 174.185 43.0038 173.619 42.4001C173.053 41.7963 172.486 41.6756 170.033 42.1588C168.523 42.1588 160.785 39.7439 157.955 40.1061C155.69 40.3959 153.991 43.0443 153.425 44.3322C153.488 44.131 153.199 43.6561 151.538 43.3664C149.781 43.0598 149.781 46.3847 149.823 47.1219C149.834 47.1566 149.839 47.1926 149.839 47.2302C149.839 47.3045 149.83 47.2559 149.823 47.1219C149.695 46.7111 148.852 46.5057 148.33 46.5057C147.008 46.9887 144.102 48.0754 143.045 48.5584C141.988 49.0414 139.711 47.8742 138.705 47.2302C136.062 48.0754 124.55 50.2488 123.04 49.7658C121.531 49.2829 117.19 49.7658 114.548 49.7658C112.434 49.7658 104.482 50.3293 100.771 50.611C93.9766 44.6945 80.7658 50.611 80.1996 50.611C79.6335 50.611 79.6335 49.1621 73.4055 49.7658C67.1776 50.3696 68.3099 52.06 68.3099 52.4222C68.3099 52.712 66.9259 52.543 66.234 52.4222C50.7585 54.4749 41.6996 52.1807 40.1898 53.026C38.982 53.7021 35.0313 55.4006 33.207 56.1653C27.1678 58.701 19.0526 53.6297 18.2977 53.6297H15.4668Z" fill="#F5EEE4"/>
</g>
<g filter="url(#filter1_d_83_93)">
<path d="M15.4668 368.538V360.931C17.6067 358.154 23.1706 353.686 28.3064 358.033C28.6841 357.993 30.3834 358.009 34.1598 358.395C38.8802 358.878 37.7473 358.878 41.3349 359.12C44.9224 359.361 47.7547 358.757 48.51 358.395C49.2023 358.999 50.6625 360.23 50.9646 360.327C51.3422 360.448 51.9087 358.516 53.7969 359.723C55.685 360.931 60.9719 363.346 65.1259 362.138C65.5791 362.138 66.6994 361.333 67.2029 360.931C67.14 361.977 67.2785 364.118 68.3358 364.312C69.6576 364.553 67.9582 364.312 70.4128 363.829C72.8675 363.346 72.301 364.07 74.1892 363.104C76.0774 362.138 76.2662 361.172 77.7768 362.5C79.2873 363.829 77.2103 364.795 79.8538 364.915C82.4972 365.036 88.7282 364.432 89.1058 366.485C89.4835 368.538 89.1058 369.745 89.1058 370.59C89.1058 371.435 95.3368 373.126 100.057 379.042C100.183 378.761 100.473 378.076 100.624 377.593C100.813 376.99 103.834 382.061 105.533 383.027C107.232 383.993 107.421 383.269 108.176 382.061C108.932 380.854 109.309 380.612 110.442 380.733C111.575 380.854 112.519 380.974 113.275 380.733C114.03 380.491 113.652 377.956 116.862 382.061C120.072 386.166 121.771 388.34 122.527 388.461C123.282 388.581 123.471 388.944 125.359 388.461C127.247 387.978 126.681 388.098 129.513 388.098C132.345 388.098 132.723 387.012 136.122 385.442C139.52 383.872 139.709 385.442 141.786 385.442C143.863 385.442 144.052 384.114 146.695 384.597C149.339 385.08 150.661 386.166 152.171 385.804C153.682 385.442 152.36 386.649 155.192 385.804C158.024 384.959 158.969 383.027 160.479 383.027C161.99 383.027 164.067 383.872 164.444 385.442C164.746 386.698 165.2 386.69 165.388 386.529L165.846 385.358C165.877 385.257 165.914 385.163 165.955 385.08L165.846 385.358C165.639 386.042 165.755 387.048 167.465 387.132C169.92 387.253 169.542 386.529 170.864 386.166C171.921 385.877 172.815 385.563 173.13 385.442C173.508 385.16 174.338 384.597 174.64 384.597C175.018 384.597 175.962 383.993 178.983 385.08C182.004 386.166 182.004 385.804 182.948 385.804C183.893 385.804 184.648 386.529 185.214 386.529C185.781 386.529 186.536 387.615 187.669 386.529C188.802 385.442 189.368 385.442 189.368 384.234C189.368 383.269 189.872 383.027 190.123 383.027C190.061 383.47 190.728 383.993 193.9 382.544C197.072 381.095 198.494 379.928 198.809 379.525C201.767 379.968 208.023 380.757 209.383 380.371C210.742 379.984 211.082 379.485 211.082 379.284C211.523 379.606 212.517 380.153 212.97 379.767C213.537 379.284 214.292 378.559 215.803 378.318C217.313 378.076 216.369 379.767 218.824 379.525C221.278 379.284 221.467 378.801 222.978 377.835C224.488 376.869 224.111 379.646 226.188 377.835C228.265 376.024 229.398 373.247 230.342 373.85C231.286 374.454 231.852 375.42 233.363 374.937C234.571 374.551 235.629 374.052 236.006 373.85C237.328 373.086 240.198 371.677 241.104 372.16C242.011 372.643 243.244 373.488 243.748 373.85C244.881 373.166 247.335 372.329 248.091 374.454C249.664 376.386 256.625 378.366 271.882 370.832C272.448 370.832 276.602 367.813 281.889 370.832C283.337 369.946 287.403 368.586 292.085 370.228C294.603 370.389 299.902 370.856 300.96 371.435C302.281 372.16 303.981 373.367 306.624 373.367C309.268 373.367 312.1 374.092 313.988 372.764C315.876 371.435 315.121 370.832 317.198 370.832C319.275 370.832 323.429 371.677 325.506 372.764C327.583 373.85 324.751 373.609 329.282 374.454C333.814 375.299 337.402 377.593 340.234 376.99C343.066 376.386 341.933 376.024 345.143 376.145C348.353 376.265 354.773 376.99 357.416 376.145C360.06 375.299 368.179 369.987 376.865 375.662C379.445 375.219 384.984 374.599 386.494 375.662C388.194 376.386 391.857 377.497 392.914 376.145C394.236 374.454 398.39 371.315 400.467 372.039V379.284C399.523 379.123 396.69 379.694 392.914 383.269C386.494 383.269 381.585 381.24 377.809 383.269C376.865 383.269 369.878 376.145 358.549 383.269C357.416 383.711 353.904 384.331 348.919 383.269C347.094 383.228 343.293 383.341 342.688 384.114C341.461 385.683 333.436 383.631 326.45 381.095C324.562 379.727 319.879 377.255 316.254 378.318C314.743 379.364 311.345 381.385 309.834 381.095C307.946 380.733 296.806 377.473 294.162 377.714C291.519 377.956 286.421 375.903 282.644 377.714C282.267 377.714 282.644 376.99 278.868 377.231C275.092 377.473 273.392 376.024 271.882 377.473C270.371 378.922 255.266 383.631 252.056 383.51C249.488 383.413 247.713 381.296 247.147 380.25C246.014 380.411 243.748 380.805 243.748 381.095C243.748 381.457 242.426 378.801 241.104 379.163C239.783 379.525 236.762 380.491 236.384 381.095C236.082 381.578 235.125 381.618 234.685 381.578C234.055 382.142 232.645 383.148 232.041 382.665C231.437 382.182 230.47 381.467 230.301 381.2C229.94 381.475 228.593 382.398 227.132 385.2C226.314 384.999 224.677 384.524 224.677 384.234C224.677 383.872 222.223 387.253 221.09 387.253C220.183 387.253 217.943 386.046 216.936 385.442L213.348 387.736C213.046 387.929 211.334 387.817 210.516 387.736C209.257 388.179 205.229 388.702 199.187 387.253L192.956 391.117L189.368 391.358C189.179 392.646 188.575 395.198 187.669 395.102C186.536 394.981 183.704 394.015 183.704 393.653C183.704 393.29 182.948 394.739 176.34 392.445C175.836 392.284 174.603 392.228 173.696 393.29L172.375 393.653C171.368 394.095 169.278 395.053 168.976 395.343C168.598 395.705 167.465 395.343 165.955 393.049C165.892 393.693 165.69 394.957 165.388 394.86C165.011 394.739 163.5 392.083 163.123 391.6C162.745 391.117 161.423 390.151 159.346 391.6C157.685 392.759 156.64 393.21 156.325 393.29L154.815 393.653C154.815 393.773 154.588 394.039 153.682 394.136C152.549 394.256 149.905 394.256 149.15 393.653C148.395 393.049 146.884 391.841 144.807 392.445C143.146 392.928 142.353 393.451 142.164 393.653C140.905 393.17 137.859 392.493 135.744 393.653C133.629 394.812 132.345 396.148 131.968 396.671C131.149 396.792 129.362 396.961 128.758 396.671C128.002 396.309 125.737 395.947 125.359 396.188C125.057 396.381 123.848 396.913 123.282 397.154C120.827 393.612 115.012 386.843 111.386 388.098C110.82 388.38 109.498 388.895 108.743 388.702C107.799 388.461 107.799 391.6 106.666 391.6C105.533 391.6 100.624 385.563 100.624 385.08C100.624 384.693 100.246 386.046 100.057 386.77C97.9173 384.355 92.8067 379.332 89.4835 378.559C89.1058 377.593 89.1058 373.971 88.1618 373.488C87.2177 373.005 82.4972 371.556 79.6649 371.798C79.2873 371.798 77.5879 368.9 76.2662 368.9C74.9445 368.9 74.1892 369.866 73.8116 370.228C73.5095 370.518 71.6716 370.751 70.7905 370.832L68.7135 371.798L66.8253 368.055C64.6854 369.302 59.0838 370.735 53.7969 366.485C53.1675 366.445 51.7199 366.509 50.9646 367.089L49.0764 364.915C48.1953 365.438 46.2064 366.485 45.3 366.485C44.1671 366.485 34.4868 363.12 28.8729 364.915C27.3623 365.398 23.0195 358.516 15.4668 368.538Z" fill="#F5EEE4"/>
</g>
<path fill-rule="evenodd" clip-rule="evenodd" d="M15.4668 53.9437V50.6787H18.8639C28.7198 56.4103 35.149 52.6942 38.0581 51.0127C38.8255 50.5691 39.3479 50.2672 39.6237 50.3176C40.7336 50.5205 59.028 50.212 65.184 50.1082H65.1841L65.1857 50.1082C66.3559 50.0884 67.0871 50.0761 67.1776 50.0761C67.6305 50.0761 67.9954 49.0296 68.1212 48.5064C70.6879 45.8017 77.6204 46.8957 80.7658 47.7808L87.9374 45.7293C93.5237 43.6042 98.8206 46.2115 100.771 47.7808C108.521 47.085 115.193 47.1416 120.012 47.1826H120.012C121.882 47.1985 123.473 47.212 124.739 47.1782C128.468 47.0788 135.78 45.0147 138.352 44.2887L138.352 44.2887C138.904 44.133 139.237 44.0388 139.271 44.0388C139.313 44.0388 139.308 44.0924 139.3 44.1824C139.273 44.4976 139.207 45.2596 140.969 45.7293C142.797 46.2164 143.395 45.7602 144.649 44.8045L144.649 44.8044C144.949 44.5758 145.287 44.3186 145.687 44.0388C147.763 42.5899 148.896 43.1936 149.839 43.9181C150.45 44.3867 150.428 44.1986 150.388 43.8439C150.366 43.6502 150.339 43.4069 150.406 43.1936C150.594 42.5899 151.16 41.141 152.104 40.0543C152.596 39.4874 152.626 39.6433 152.703 40.0423C152.774 40.4081 152.883 40.9781 153.425 41.3825C154.003 41.814 154.188 41.3957 154.506 40.674C154.812 39.9821 155.24 39.0114 156.256 38.2431C156.415 38.1228 156.562 38.0089 156.7 37.9018L156.7 37.9015C158.364 36.6114 158.752 36.3108 163.805 37.7601C168.502 39.1073 170.975 38.8535 171.94 38.7545C172.099 38.7382 172.217 38.7261 172.298 38.7261C172.646 38.7261 173.066 38.8634 173.734 39.0816C174.151 39.2178 174.664 39.3856 175.317 39.5713C176.546 39.9207 177.281 38.9429 177.879 38.1468C178.108 37.8425 178.317 37.5648 178.526 37.3979C179.13 36.9149 181.168 36.9551 182.111 37.0356C186.329 35.5042 189.995 36.175 193.486 36.8135C195.774 37.2322 197.987 37.637 200.229 37.3979C204.367 36.9567 205.984 38.2566 207.071 39.1298C207.472 39.4515 207.8 39.7153 208.156 39.8128C208.728 39.9698 209.266 40.0134 209.86 40.0616C210.636 40.1245 211.509 40.1953 212.685 40.5372C213.958 40.9074 214.379 41.7771 214.732 42.5058C214.955 42.9655 215.151 43.369 215.516 43.5559C215.913 43.7591 216.31 43.5133 216.749 43.2414C217.354 42.8672 218.038 42.4435 218.913 43.0729C219.767 43.6875 222.552 44.4565 224.948 45.118C226.788 45.6261 228.399 46.0707 228.727 46.333L228.774 46.3714C229.636 47.0623 233.504 50.1638 236.464 48.5064C239.484 46.816 247.222 46.6952 248.731 46.9367C250.241 47.1782 254.771 46.4537 257.79 45.4878C259.714 44.8723 261.025 45.5804 262.358 46.3002C263.117 46.71 263.883 47.1237 264.773 47.299C266.736 47.6853 271.504 47.2185 273.643 46.9367C274.501 44.56 277.197 46.0588 278.947 47.0321C279.509 47.3444 279.974 47.6025 280.249 47.6612C281.155 47.8544 281.758 47.7417 281.947 47.6612C283.579 45.0039 286.377 47.7919 288.049 49.4587C288.504 49.9126 288.876 50.2833 289.119 50.4383C289.869 50.9182 290.453 50.4445 290.872 50.105C291.086 49.932 291.256 49.7938 291.383 49.8346C291.499 49.8714 291.614 50.088 291.777 50.3951C292.149 51.0951 292.772 52.2658 294.214 52.8532C295.649 53.4375 296.634 52.0023 297.416 50.861C297.766 50.3513 298.075 49.9002 298.366 49.7139C298.899 49.3732 298.951 49.4554 299.132 49.7436C299.272 49.9662 299.489 50.3115 300.065 50.6798C301.122 51.356 310.696 50.7201 315.352 50.3176C322.614 48.2623 323.882 48.0587 325.81 47.7492C326.487 47.6405 327.245 47.5187 328.374 47.299C331.079 46.7722 332.465 47.6055 333.536 48.2498C334.184 48.6392 334.717 48.9596 335.357 48.8686C336.378 48.7234 339.722 48.8403 343.047 48.9565C345.248 49.0335 347.441 49.1101 348.945 49.1101C351.964 49.1101 354.481 42.1069 355.361 38.6053C361.107 39.4073 363.094 37.5089 364.907 35.7765C366.37 34.3791 367.719 33.0898 370.837 33.4133C371.959 33.5297 372.171 33.2739 372.471 32.9109C372.62 32.7316 372.79 32.5262 373.102 32.3266C373.63 31.9883 373.863 32.0291 374.198 32.0879C374.46 32.1341 374.786 32.1913 375.366 32.0851C376.141 31.9435 376.85 31.055 377.457 30.2953C377.885 29.7592 378.262 29.2871 378.575 29.1872C378.875 29.0912 379.204 29.3957 379.623 29.7823C380.258 30.3686 381.098 31.1439 382.349 30.9984C383.867 30.8218 384.78 29.8702 385.53 29.0882C385.805 28.801 386.059 28.5366 386.312 28.342C386.869 27.9143 387.558 28.0337 388.106 28.1287C388.487 28.1947 388.8 28.2489 388.955 28.1005C389.049 28.0099 389.143 27.8891 389.258 27.7419L389.258 27.7418C389.603 27.3002 390.134 26.6209 391.408 25.806C392.384 25.1815 393.609 25.9126 394.726 26.5788C395.552 27.0719 396.319 27.5294 396.881 27.3753C397.938 27.0855 399.712 27.2546 400.467 27.3753V29.6739V35.586V368.36V372.348V375.605C399.523 375.444 396.69 376.015 392.914 379.589C390.593 379.589 388.47 379.324 386.526 379.081C383.093 378.653 380.22 378.294 377.809 379.589C377.65 379.589 377.319 379.387 376.824 379.084C374.386 377.592 367.969 373.666 358.549 379.589C357.416 380.032 353.904 380.652 348.919 379.589C347.094 379.549 343.293 379.662 342.688 380.434C341.461 382.004 333.436 379.951 326.45 377.416C324.562 376.047 319.879 373.576 316.254 374.639C314.743 375.685 311.345 377.706 309.834 377.416C309.319 377.317 308.116 377.003 306.585 376.603C302.502 375.536 296.085 373.859 294.162 374.035C293.255 374.118 292.059 373.931 290.727 373.722C288.176 373.323 285.125 372.845 282.644 374.035C282.556 374.035 282.509 373.995 282.441 373.938C282.216 373.749 281.762 373.367 278.868 373.552C277.31 373.652 276.105 373.463 275.122 373.31C273.721 373.091 272.769 372.942 271.882 373.793C270.371 375.242 255.266 379.951 252.056 379.831C249.488 379.734 247.713 377.617 247.147 376.571C246.014 376.732 243.748 377.126 243.748 377.416C243.748 377.521 243.635 377.37 243.443 377.112C242.977 376.486 242.041 375.227 241.104 375.484C239.783 375.846 236.762 376.812 236.384 377.416C236.082 377.899 235.125 377.939 234.685 377.899C234.055 378.462 232.645 379.468 232.041 378.985C231.904 378.876 231.749 378.755 231.588 378.629C231.04 378.202 230.431 377.727 230.301 377.521C230.283 377.534 230.264 377.549 230.242 377.565C229.81 377.889 228.522 378.854 227.132 381.521C226.314 381.32 224.677 380.845 224.677 380.555C224.677 380.428 224.377 380.76 223.937 381.245C223.121 382.145 221.826 383.574 221.09 383.574C220.183 383.574 217.943 382.366 216.936 381.763L213.348 384.057C213.046 384.25 211.334 384.137 210.516 384.057C209.257 384.499 205.229 385.023 199.187 383.574L192.956 387.438L189.368 387.679C189.179 388.967 188.575 391.519 187.669 391.422C186.536 391.301 183.704 390.335 183.704 389.973C183.704 389.891 183.665 389.902 183.527 389.942C183.058 390.076 181.447 390.539 176.34 388.766C175.836 388.605 174.603 388.548 173.696 389.611L172.375 389.973C171.368 390.416 169.278 391.374 168.976 391.664C168.598 392.026 167.465 391.664 165.955 389.37C165.892 390.013 165.69 391.277 165.388 391.181C165.137 391.1 164.381 389.893 163.794 388.954C163.5 388.484 163.248 388.082 163.123 387.921C162.745 387.438 161.423 386.472 159.346 387.921C157.685 389.08 156.64 389.531 156.325 389.611L154.815 389.973C154.815 390.094 154.588 390.36 153.682 390.456C152.549 390.577 149.905 390.577 149.15 389.973C148.395 389.37 146.884 388.162 144.807 388.766C143.146 389.249 142.353 389.772 142.164 389.973C140.905 389.49 137.859 388.814 135.744 389.973C133.629 391.132 132.345 392.469 131.968 392.992C131.149 393.113 129.362 393.282 128.758 392.992C128.002 392.63 125.737 392.267 125.359 392.509C125.057 392.702 123.848 393.233 123.282 393.475C120.827 389.933 115.012 383.163 111.386 384.419C110.82 384.701 109.498 385.216 108.743 385.023C108.282 384.905 108.047 385.591 107.794 386.326C107.529 387.097 107.246 387.921 106.666 387.921C105.533 387.921 100.624 381.883 100.624 381.4C100.624 381.014 100.246 382.366 100.057 383.091C97.9173 380.676 92.8067 375.653 89.4835 374.88C89.3519 374.544 89.2662 373.885 89.1704 373.148C88.9912 371.771 88.7769 370.124 88.1618 369.809C87.2177 369.326 82.4972 367.877 79.6649 368.118C79.5334 368.118 79.2415 367.767 78.861 367.309C78.1492 366.451 77.1275 365.221 76.2662 365.221C75.1058 365.221 74.382 365.965 73.967 366.392C73.9094 366.451 73.8577 366.505 73.8116 366.549C73.5095 366.839 71.6716 367.072 70.7905 367.152L68.7135 368.118L66.8253 364.375C64.6854 365.623 59.0838 367.056 53.7969 362.806C53.1675 362.765 51.7199 362.83 50.9646 363.409L49.0764 361.236C48.1953 361.759 46.2064 362.806 45.3 362.806C45.0404 362.806 44.3316 362.629 43.3257 362.378C39.943 361.534 33.2 359.852 28.8729 361.236C28.5185 361.349 28.0083 361.057 27.3373 360.673C25.1481 359.42 21.2477 357.188 15.4668 364.858V361.24V357.251V58.0441V53.9437ZM390.031 373.016C390.943 373.152 391.805 373.146 392.401 372.864L390.031 373.016Z" fill="#F5EEE4"/>
<defs>
<filter id="filter0_d_83_93" x="0.466797" y="0.154175" width="415" height="65.7211" filterUnits="userSpaceOnUse" color-interpolation-filters="sRGB">
<feFlood flood-opacity="0" result="BackgroundImageFix"/>
<feColorMatrix in="SourceAlpha" type="matrix" values="0 0 0 0 0 0 0 0 0 0 0 0 0 0 0 0 0 0 127 0" result="hardAlpha"/>
<feOffset dy="-6"/>
<feGaussianBlur stdDeviation="7.5"/>
<feComposite in2="hardAlpha" operator="out"/>
<feColorMatrix type="matrix" values="0 0 0 0 0 0 0 0 0 0 0 0 0 0 0 0 0 0 0.1 0"/>
<feBlend mode="normal" in2="BackgroundImageFix" result="effect1_dropShadow_83_93"/>
<feBlend mode="normal" in="SourceGraphic" in2="effect1_dropShadow_83_93" result="shape"/>
</filter>
<filter id="filter1_d_83_93" x="0.466797" y="347.217" width="415" height="70.9373" filterUnits="userSpaceOnUse" color-interpolation-filters="sRGB">
<feFlood flood-opacity="0" result="BackgroundImageFix"/>
<feColorMatrix in="SourceAlpha" type="matrix" values="0 0 0 0 0 0 0 0 0 0 0 0 0 0 0 0 0 0 127 0" result="hardAlpha"/>
<feOffset dy="6"/>
<feGaussianBlur stdDeviation="7.5"/>
<feComposite in2="hardAlpha" operator="out"/>
<feColorMatrix type="matrix" values="0 0 0 0 0 0 0 0 0 0 0 0 0 0 0 0 0 0 0.1 0"/>
<feBlend mode="normal" in2="BackgroundImageFix" result="effect1_dropShadow_83_93"/>
<feBlend mode="normal" in="SourceGraphic" in2="effect1_dropShadow_83_93" result="shape"/>
</filter>
</defs>
</svg>
