<svg width="16" height="16" viewBox="0 0 16 16" fill="none" xmlns="http://www.w3.org/2000/svg">
<path d="M3.47257 8.66656H10.9192L7.66591 11.9199C7.40591 12.1799 7.40591 12.6066 7.66591 12.8666C7.92591 13.1266 8.34591 13.1266 8.60591 12.8666L12.9992 8.47322C13.2592 8.21322 13.2592 7.79322 12.9992 7.53322L8.61258 3.13322C8.48802 3.00839 8.31892 2.93823 8.14258 2.93823C7.96623 2.93823 7.79713 3.00839 7.67257 3.13322C7.41258 3.39322 7.41258 3.81322 7.67257 4.07322L10.9192 7.33322H3.47257C3.10591 7.33322 2.80591 7.63322 2.80591 7.99989C2.80591 8.36656 3.10591 8.66656 3.47257 8.66656Z" fill="#FFFEF9"/>
</svg>
