<svg width="276" height="202" viewBox="0 0 276 202" fill="none" xmlns="http://www.w3.org/2000/svg">
<g filter="url(#filter0_d_83_158)">
<path d="M213.505 24.1466L217.919 21.8678L218.17 22.3539C214.749 26.3774 219.967 24.949 219.92 25.2128C219.873 25.4765 222.058 28.9998 222.1 29.0808C222.134 29.1456 222.788 28.874 223.111 28.7302C224.921 28.2606 224.778 29.5911 224.48 30.315L226.239 30.7065C227.925 30.8483 226.754 32.413 225.958 33.1776C227.331 34.418 227.682 35.81 228.089 36.4208C228.496 37.0315 231.03 37.5019 231.044 37.5289C231.058 37.5559 230.351 37.7841 230.157 38.2949C229.962 38.8058 230.497 38.5983 231.518 38.447C232.54 38.2958 232.262 38.6446 231.897 39.0038C231.533 39.363 231.998 39.0204 232.373 38.8607C232.749 38.7009 233.659 38.3336 234.38 38.1324C235.101 37.9312 234.105 38.3088 233.682 38.7324C233.259 39.1559 234.678 38.3548 235.772 38.1662C236.866 37.9776 237.156 37.8281 236.619 39.0969C236.083 40.3657 236.626 40.53 236.668 40.611C236.71 40.692 236.548 40.9121 236.384 41.3046C236.221 41.6971 237.506 41.17 237.924 41.0913C238.258 41.0283 238.384 41.3324 238.406 41.4923C240.441 41.707 238.747 43.5735 239.527 44.1969C240.307 44.8202 238.785 45.7771 238.666 46.0782C238.546 46.3793 238.775 46.4666 238.566 46.9505C238.358 47.4343 237.186 48.005 236.967 48.2895C236.747 48.5739 238.047 48.0739 237.507 48.6262C236.967 49.1784 236.584 50.7443 236.278 51.0391L236.259 51.0578C235.909 51.3949 234.336 52.9079 235.548 52.8187C236.784 52.7278 237.428 53.7976 237.395 54.0884C237.361 54.3792 238.13 54.8031 238.932 54.9364C239.734 55.0696 238.471 55.9954 238.363 56.4959C238.276 56.8963 238.908 57.4342 239.235 57.6531C241.2 56.8438 239.35 58.5857 239.289 58.8224C239.24 59.0118 239.352 59.0633 239.415 59.0654C241.594 58.3165 238.631 60.5647 238.28 60.9509C237.93 61.337 238.854 60.9968 238.809 61.0881C238.765 61.1795 237.563 61.8686 237.21 62.4271C236.856 62.9857 238.966 62.1017 239.398 62.05C239.829 61.9982 239.353 62.1413 238.944 62.5919C238.617 62.9523 239.706 64.1256 240.291 64.6672C242.68 65.2123 242.234 65.237 243.062 65.5966C243.889 65.9562 242.367 66.9131 242.637 67.0815C242.907 67.2498 243.217 68.5604 243.496 69.1005C243.719 69.5326 248.102 67.726 250.265 66.7686C250.164 68.7022 254.438 66.1533 254.52 67.3767C254.539 67.6704 254.907 67.4163 255.338 67.3645C255.77 67.3127 255.408 67.4995 255.65 67.6139C255.892 67.7282 257.423 67.1431 257.624 67.1764C257.824 67.2097 256.519 68.0545 256.817 68.2768C257.115 68.4992 258.198 68.1112 258.702 68.0221C259.206 67.933 258.797 68.3835 259.042 68.3254C259.287 68.2674 259.821 68.0598 260.598 67.9666C261.375 67.8734 259.747 69.1583 260.062 69.2353C260.314 69.2968 260.343 69.603 260.327 69.7484L255.407 72.2887C255.441 72.2368 255.518 72.1147 255.554 72.0416C255.598 71.9502 255.312 71.9273 255.114 71.7216C254.916 71.5159 255.5 70.8721 255.751 70.4693C256.001 70.0665 254.612 70.7492 254.281 70.8177C253.95 70.8861 254.181 70.801 253.955 70.5413C253.729 70.2816 251.714 70.6381 251.758 70.5467C251.803 70.4553 252.281 70.1399 252.587 69.8451C252.893 69.5503 251.424 69.8987 250.229 70.0706C249.274 70.2082 249.15 69.6361 249.207 69.3329C245.611 70.7106 245.963 69.2632 245.677 69.2402C245.39 69.2173 241.577 70.7071 240.291 71.2341C239.005 71.7612 239.386 71.2566 239.06 70.9803C238.734 70.7039 238.246 69.7587 238.196 69.306C238.145 68.8532 238.668 68.4463 238.854 67.5637C239.04 66.6811 235.933 67.0537 235.649 66.8584C235.365 66.6631 234.706 64.6773 235.215 64.2434C235.725 63.8095 232.827 64.5873 232.785 64.5063C232.743 64.4253 234.455 63.3023 234.513 63.2379C234.571 63.1736 234.054 63.2357 233.912 63.138C233.77 63.0403 235.965 61.2571 235.937 61.2031C235.909 61.1491 234.712 61.4934 234.845 61.2193C234.979 60.9452 236.782 59.4671 235.774 59.6453C234.766 59.8236 234.387 59.2668 234.234 58.9698C234.08 58.6727 236.151 57.5353 234.439 57.7694C232.727 58.0034 233.986 55.4721 231.848 55.4132C230.137 55.366 231.351 53.7999 232.171 53.0228C232.163 52.651 232.282 51.7821 232.83 51.2805C233.377 50.7789 232.903 50.5356 232.598 50.4766C232.946 50.2628 234.601 49.0319 234.172 48.9112C233.829 48.8147 234.181 48.3365 234.4 48.1095C235.542 47.0547 235.213 46.3104 234.905 46.0701C235.452 44.1462 234.38 43.8102 233.776 43.8827C233.951 43.6896 234.172 43.3362 233.653 43.4673C233.005 43.6311 231.599 43.5704 231.919 43.3026C232.239 43.0348 232.269 42.9164 231.798 42.7148C231.687 42.4988 232.562 40.6444 232.136 40.3514C231.795 40.117 230.082 40.6933 229.269 41.0108C229.394 40.9576 229.657 40.7692 229.708 40.4419C229.762 40.0957 227.77 41.1244 227.331 41.3585C227.311 41.3707 227.29 41.3827 227.267 41.3943C227.223 41.4173 227.251 41.401 227.331 41.3585C227.568 41.2131 227.629 41.0289 227.59 40.9541C227.203 40.9145 226.337 40.8349 225.97 40.8331C225.602 40.8313 226.133 40.1443 226.445 39.801C225.743 39.6844 223.59 38.7096 223.768 38.3441C223.946 37.9786 223.336 37.5069 223.141 37.1289C222.984 36.8264 222.059 35.8629 221.616 35.419C224.66 32.6163 220.138 32.5565 220.096 32.4754C220.055 32.3944 220.923 31.9461 220.101 31.2418C219.279 30.5374 218.35 31.2224 218.133 31.3345C217.959 31.4241 217.958 31.1738 217.979 31.0374C215.606 29.4581 216.311 27.4521 215.693 27.4975C215.199 27.5339 213.889 27.4941 213.296 27.4696C211.331 27.39 213.77 24.6597 213.714 24.5517L213.505 24.1466Z" fill="#F2C986" fill-opacity="0.8" shape-rendering="crispEdges"/>
</g>
<g filter="url(#filter1_d_83_158)">
<path d="M24.8016 121.576L29.3599 119.223C31.1822 118.67 34.2703 118.084 32.045 120.163C32.097 120.205 32.2129 120.453 32.2604 121.113C32.3197 121.938 32.236 121.776 32.3564 122.364C32.4767 122.952 33.0477 123.171 33.3206 123.167C33.01 123.452 32.3798 124.042 32.3443 124.115C32.2998 124.207 33.4993 123.69 32.9153 124.334C32.3312 124.978 31.2747 126.481 32.3052 126.702C32.3387 126.767 32.9038 126.678 33.1822 126.626C32.5505 126.941 31.2776 127.623 31.24 127.834C31.1929 128.098 31.2121 127.78 31.6828 127.982C32.1536 128.184 31.6776 128.327 32.3959 128.298C33.1143 128.269 33.7071 127.997 33.0228 128.625C32.3385 129.252 31.6062 129.253 31.7291 129.669C31.8521 130.084 32.6742 130.789 31.4721 131.478C30.2699 132.168 29.5185 132.487 29.012 132.749C28.5055 133.01 27.9529 134.425 24.7563 136.931C24.9344 136.861 25.3658 136.691 25.6664 136.563C26.0421 136.404 23.2264 138.405 22.7731 138.947C22.3198 139.489 22.7679 139.292 23.5473 139.026C24.3266 138.761 24.4992 138.74 24.5106 138.94C24.5219 139.139 24.5193 139.312 24.7198 139.345C24.9203 139.378 26.4119 138.54 24.189 140.269L24.1889 140.269C21.966 141.999 20.7892 142.914 20.7727 143.06C20.7561 143.205 20.553 143.344 20.9819 143.465C21.4108 143.586 21.2966 143.542 21.5059 143.947C21.7151 144.353 22.3942 144.07 23.5859 144.071C24.7776 144.072 23.851 144.584 24.0044 144.882C24.1579 145.179 24.9677 144.795 24.8736 145.323C24.7795 145.85 24.2259 146.376 24.5546 146.48C24.8832 146.584 24.0621 146.768 24.7778 146.912C25.4935 147.056 26.7209 146.593 26.8325 146.809C26.9441 147.025 26.5911 147.584 25.6784 148.124C24.9482 148.556 24.9865 148.618 25.0969 148.595L25.8323 148.298C25.8952 148.271 25.9543 148.248 26.0071 148.228L25.8323 148.298C25.4073 148.48 24.8127 148.808 24.8886 149.079C24.9976 149.468 25.4038 149.19 25.7186 149.267C25.9703 149.328 26.2245 149.359 26.3201 149.367C26.5168 149.334 26.9158 149.278 26.9382 149.321C26.9661 149.375 27.3976 149.324 26.9696 150.092C26.5416 150.861 26.7587 150.749 26.8284 150.884C26.8982 151.019 26.5198 151.351 26.5617 151.432C26.6035 151.513 26.0081 151.957 26.743 151.783C27.4779 151.609 27.5198 151.69 28.2433 151.317C28.8222 151.018 29.0041 151.015 29.0227 151.051C28.7527 151.179 28.4885 151.436 29.5911 151.442C30.6937 151.448 31.4982 151.29 31.7626 151.211C31.7159 151.771 31.7054 152.91 32.0373 152.985C32.3693 153.06 32.6935 152.954 32.8141 152.892C32.6537 153.055 32.3992 153.366 32.6642 153.312C32.9954 153.243 33.4854 153.127 33.7417 153.269C33.998 153.41 32.9153 153.798 33.2413 154.075C33.5674 154.351 33.8707 154.229 34.5612 154.146C35.2516 154.063 33.5596 154.868 34.7983 154.605C36.0371 154.342 37.7849 153.645 37.4929 153.967C37.2009 154.289 36.6639 154.669 37.0649 154.735C37.3857 154.789 37.7629 154.786 37.9114 154.777C38.4673 154.73 39.5235 154.705 39.301 154.984C39.0786 155.263 38.6632 155.701 38.4834 155.885C38.9771 155.836 39.6601 155.928 38.4424 156.693C37.401 157.516 36.7287 159.125 42.3708 158.977C42.4126 159.058 44.5284 158.719 43.1101 160.409C43.7476 160.342 44.8632 160.503 44.2252 161.681C44.3147 162.091 44.4264 162.994 44.1573 163.325C43.8208 163.738 43.2228 164.355 43.4181 164.733C43.6134 165.111 43.3885 165.741 44.3239 165.6C45.2593 165.459 45.5653 165.164 45.7187 165.461C45.8722 165.759 45.6726 166.615 45.1748 167.248C44.6771 167.881 44.6126 167.401 44.4409 168.311C44.2692 169.221 43.1595 170.444 43.7305 170.663C44.3015 170.881 44.4349 170.607 44.5997 171.104C44.7645 171.601 44.8047 172.743 45.5064 172.86C46.2082 172.977 49.9917 172.495 47.2327 175.494C47.6886 175.726 48.4693 176.327 47.9441 176.871C47.6356 177.339 47.2405 178.207 48.129 177.94C49.2396 177.606 51.4277 177.229 51.1471 177.75L46.8058 179.992C46.8325 179.807 46.2808 179.578 43.8601 180.144C43.3858 179.225 44.2387 177.895 42.7441 177.982C42.6744 177.847 46.4271 174.643 41.3212 175.226C40.9722 175.201 40.3413 174.89 40.6098 173.848C40.4991 173.575 40.1507 173.066 39.643 173.218C38.6117 173.528 39.2488 171.745 40.2521 169.961C40.9327 169.267 42.0676 167.833 41.163 167.642C40.4243 167.75 38.9625 167.889 39.0245 167.583C39.1021 167.201 40.2326 164.598 39.8926 164.295C39.5526 163.991 40.406 162.626 39.0417 162.646C39.0138 162.592 39.4758 162.422 39.0521 161.957C38.6284 161.491 39.3711 160.8 38.3913 161.032C37.4114 161.264 33.4736 160.559 33.3088 160.063C33.177 159.665 34.3144 158.756 34.8997 158.351C34.7195 158.239 34.3157 158.037 34.1421 158.127C33.925 158.239 35.4192 157.228 35.1045 157.151C34.7898 157.074 33.9877 156.94 33.598 157.073C33.2863 157.179 33.1915 157.055 33.1831 156.979C32.7989 157.063 32.0918 157.173 32.3366 156.937C32.5814 156.701 32.9385 156.342 33.0857 156.235C32.8946 156.268 32.2417 156.361 30.4545 157.019C30.5146 156.84 30.6783 156.459 30.8519 156.369C31.069 156.257 28.8617 156.952 28.778 156.79C28.7111 156.66 29.2691 155.966 29.5565 155.635L27.9167 155.831C27.7786 155.848 27.7196 155.568 27.7074 155.426C27.3491 155.383 26.738 154.968 27.1598 153.656L24.3842 153.959L23.9744 153.521C23.1887 153.892 21.6149 154.595 21.6059 154.436C21.5945 154.236 21.9641 153.532 22.1812 153.42C22.3982 153.308 21.4742 153.648 22.3607 151.993C22.4199 151.871 22.3626 151.677 21.6589 151.876L21.3442 151.799C21.0045 151.792 20.2761 151.789 20.0801 151.836C19.8352 151.894 19.9685 151.619 21.2317 150.693C20.8411 150.884 20.0689 151.246 20.1045 151.173C20.1489 151.081 21.6291 150.043 21.8907 149.84C22.1522 149.636 22.6334 149.148 21.6117 149.3C20.7943 149.42 20.447 149.41 20.3755 149.39L20.0468 149.286C19.9745 149.324 19.7986 149.373 19.6737 149.274C19.5177 149.149 19.3224 148.771 19.6283 148.476C19.9343 148.181 20.5463 147.591 20.031 147.481C19.6189 147.392 19.2467 147.441 19.1122 147.476C19.3086 147.146 19.4887 146.501 18.6379 146.557C17.7871 146.613 16.8915 146.843 16.55 146.951C16.4172 146.871 16.1839 146.668 16.3129 146.492C16.4742 146.271 16.5238 145.835 16.3512 145.856C16.2131 145.872 15.8055 145.864 15.6189 145.858C17.56 144.41 21.187 141.484 20.1667 141.354C19.956 141.36 19.5496 141.33 19.6096 141.162C19.6846 140.952 17.8033 141.924 17.7197 141.761C17.636 141.599 20.891 139.029 21.1804 138.88C21.4119 138.76 20.5737 139.124 20.1256 139.322C21.4146 138.268 24.047 135.983 24.2645 135.268C24.8154 134.915 26.9861 133.795 27.2057 133.51C27.4254 133.226 27.9449 132.102 27.591 131.771C27.5631 131.717 29.174 130.577 29.0764 130.388C28.9787 130.199 28.3441 130.39 28.0991 130.448C27.9032 130.494 27.6275 130.304 27.5142 130.202L26.7819 130.204L28.8854 128.776C27.9796 128.856 26.7071 128.497 28.8634 126.426C28.841 126.323 28.6955 126.136 28.2924 126.207L29.4553 125.265C29.0767 125.301 28.3026 125.34 28.2357 125.21C28.152 125.048 29.453 122.622 27.9627 122.374C27.5616 122.307 31.365 119.556 24.8016 121.576Z" fill="#F2C986" fill-opacity="0.8" shape-rendering="crispEdges"/>
</g>
<path fill-rule="evenodd" clip-rule="evenodd" d="M53.352 176.612L252.762 73.6542L252.761 73.6546L257.682 71.1143C257.698 70.9689 257.668 70.6627 257.417 70.6012C257.283 70.5684 257.5 70.3172 257.735 70.0464C258.051 69.6805 258.399 69.2789 257.953 69.3325C257.37 69.4023 256.924 69.5366 256.634 69.6239C256.537 69.6529 256.458 69.6768 256.396 69.6913C256.296 69.7151 256.305 69.6535 256.317 69.5787C256.333 69.4708 256.354 69.3354 256.057 69.388C255.921 69.4119 255.744 69.4574 255.552 69.5069C255.028 69.6415 254.39 69.8053 254.172 69.6427C253.992 69.5087 254.395 69.1487 254.699 68.8764C254.9 68.6969 255.058 68.5555 254.978 68.5423C254.895 68.5285 254.585 68.6206 254.232 68.7252L254.232 68.7252C253.732 68.8734 253.147 69.0468 253.005 68.9797C252.898 68.9295 252.909 68.8652 252.917 68.8134C252.927 68.7473 252.935 68.7014 252.693 68.7304C252.55 68.7475 252.415 68.7867 252.296 68.821C252.056 68.8903 251.887 68.9392 251.874 68.7425C251.838 68.1963 250.966 68.4021 250.02 68.6252C248.848 68.9017 247.564 69.2047 247.62 68.1345C245.456 69.0919 241.074 70.8985 240.851 70.4664C240.74 70.2512 240.624 69.9137 240.507 69.5749C240.331 69.0633 240.154 68.5486 239.992 68.4473C239.89 68.3839 240.042 68.2086 240.228 67.9954C240.535 67.6427 240.932 67.1866 240.416 66.9625C240.201 66.869 240.072 66.7982 239.957 66.7349C239.629 66.5549 239.414 66.4365 237.645 66.0331C237.06 65.4915 235.972 64.3182 236.299 63.9578C236.477 63.7614 236.668 63.6235 236.791 63.5346C236.95 63.4195 236.996 63.3866 236.752 63.4158C236.619 63.4318 236.326 63.527 235.995 63.6347L235.995 63.6348L235.995 63.6348C235.253 63.876 234.32 64.1791 234.564 63.793C234.81 63.4048 235.465 62.9535 235.857 62.6837C236.029 62.5653 236.151 62.4819 236.164 62.454C236.179 62.4232 236.084 62.4415 235.964 62.4645C235.73 62.5096 235.403 62.5725 235.635 62.3167C235.71 62.2341 235.905 62.0662 236.143 61.8606C237.018 61.1056 238.482 59.8427 236.769 60.4313C236.707 60.4292 236.595 60.3777 236.644 60.1883C236.659 60.1308 236.779 59.9844 236.925 59.8075C237.379 59.2558 238.078 58.4063 236.59 59.019C236.263 58.8001 235.631 58.2622 235.718 57.8618C235.757 57.6802 235.948 57.4426 236.138 57.2072C236.471 56.7938 236.798 56.3871 236.287 56.3022C235.485 56.169 234.716 55.745 234.749 55.4543C234.783 55.1635 234.139 54.0937 232.903 54.1846C231.691 54.2737 233.263 52.7608 233.614 52.4237L233.633 52.405C233.766 52.2769 233.914 51.909 234.082 51.4885L234.082 51.4883C234.302 50.9409 234.557 50.3044 234.862 49.992C235.174 49.6722 234.87 49.7053 234.601 49.7346C234.406 49.7559 234.229 49.7751 234.321 49.6554C234.406 49.5454 234.634 49.3925 234.893 49.2184C235.303 48.9424 235.793 48.6131 235.921 48.3164C236.039 48.0423 236.017 47.8955 235.997 47.7649C235.982 47.665 235.969 47.5747 236.021 47.4441C236.053 47.363 236.187 47.2344 236.35 47.0776C236.793 46.652 237.452 46.0183 236.882 45.5627C236.573 45.3159 236.652 44.874 236.734 44.417C236.859 43.72 236.99 42.9878 235.761 42.8582C235.739 42.6982 235.613 42.3941 235.279 42.4571C235.163 42.4789 234.981 42.535 234.782 42.5964C234.261 42.7571 233.621 42.9545 233.739 42.6705C233.802 42.5196 233.865 42.3943 233.916 42.2924C233.997 42.1294 234.048 42.0268 234.023 41.9769C234.017 41.9654 234.001 41.9523 233.979 41.9345C233.849 41.8272 233.514 41.5518 233.974 40.4628C234.469 39.2914 234.26 39.3289 233.364 39.49L233.362 39.4904C233.288 39.5036 233.21 39.5177 233.127 39.532C232.591 39.6244 231.978 39.8634 231.541 40.0338C231.085 40.2115 230.821 40.3145 231.037 40.0983C231.239 39.8957 231.572 39.7036 231.786 39.5804L231.786 39.5803C232.02 39.4459 232.111 39.3933 231.735 39.4983C231.014 39.6995 230.104 40.0668 229.728 40.2265C229.595 40.283 229.452 40.3622 229.337 40.4252L229.337 40.4253C229.128 40.5407 229.017 40.602 229.252 40.3697C229.617 40.0105 229.895 39.6617 228.873 39.8129C228.676 39.8421 228.497 39.8734 228.338 39.9012C227.672 40.0175 227.355 40.073 227.512 39.6608C227.663 39.2634 228.124 39.037 228.315 38.9434C228.37 38.9167 228.402 38.9008 228.399 38.8948C228.397 38.89 228.315 38.8714 228.181 38.8406C227.556 38.6972 225.779 38.2895 225.444 37.7867C225.33 37.6159 225.221 37.3841 225.092 37.1116C224.761 36.4094 224.302 35.4371 223.312 34.5434C224.109 33.7789 225.28 32.2142 223.594 32.0724L221.834 31.6809C222.132 30.957 222.276 29.6265 220.465 30.0961C220.143 30.2399 219.489 30.5115 219.455 30.4467C219.451 30.439 219.428 30.4003 219.389 30.3364C219.362 30.2926 219.329 30.237 219.289 30.1714C218.772 29.3226 217.235 26.8002 217.275 26.5786C217.285 26.5236 217.065 26.5423 216.743 26.5697L216.742 26.5697C215.52 26.6736 212.818 26.9034 215.525 23.7198L215.274 23.2337L213.317 24.244L213.317 24.2438L29.1745 119.318L29.1749 119.318L27.0063 120.438C32.03 118.892 30.9804 120.141 30.3912 120.842C30.2106 121.057 30.0733 121.22 30.1674 121.236C31.3162 121.427 30.8065 122.912 30.5509 123.657C30.4748 123.879 30.4213 124.035 30.4404 124.072C30.5074 124.202 31.2814 124.162 31.6601 124.127L30.4972 125.069C30.9003 124.998 31.0458 125.185 31.0682 125.288C28.9119 127.359 30.1844 127.718 31.0901 127.638L28.9866 129.066L29.7189 129.064C29.8323 129.165 30.1079 129.356 30.3039 129.31C30.3338 129.303 30.3695 129.294 30.4093 129.284C30.6957 129.211 31.1954 129.084 31.2811 129.25C31.3448 129.373 30.6828 129.9 30.2217 130.267C29.9751 130.464 29.786 130.614 29.7957 130.633C30.1497 130.964 29.6302 132.087 29.4105 132.372C29.2674 132.557 28.2959 133.098 27.484 133.549C27.0498 133.791 26.6612 134.007 26.4693 134.13C26.2517 134.845 23.6193 137.13 22.3303 138.183C22.7784 137.986 23.6167 137.622 23.3852 137.741C23.0957 137.891 19.8407 140.461 19.9244 140.623C19.9673 140.706 20.4818 140.492 20.9635 140.291C21.4221 140.1 21.8509 139.922 21.8144 140.024C21.7544 140.192 22.1608 140.221 22.3714 140.215C23.3918 140.346 19.7647 143.272 17.8237 144.719C18.0102 144.726 18.4179 144.734 18.556 144.718C18.7286 144.697 18.6789 145.133 18.5177 145.353C18.3886 145.53 18.622 145.733 18.7548 145.813C19.0962 145.705 19.9918 145.475 20.8427 145.419C21.6935 145.363 21.5134 146.008 21.317 146.338C21.4515 146.303 21.8236 146.254 22.2358 146.342C22.751 146.453 22.1391 147.043 21.8331 147.337C21.5271 147.632 21.7224 148.011 21.8785 148.135C22.0033 148.235 22.1793 148.185 22.2516 148.148L22.5803 148.252C22.6518 148.272 22.9991 148.282 23.8164 148.161C24.8381 148.01 24.3569 148.498 24.0954 148.702C24.0082 148.77 23.7856 148.93 23.526 149.117C23.0066 149.492 22.3389 149.974 22.3092 150.035C22.2737 150.108 23.0459 149.746 23.4364 149.555C22.1733 150.481 22.0399 150.755 22.2849 150.697C22.4808 150.651 23.2092 150.654 23.5489 150.661L23.8637 150.738C24.5673 150.539 24.6247 150.733 24.5654 150.855C23.8803 152.134 24.2766 152.221 24.3918 152.247C24.4257 152.254 24.4353 152.256 24.3859 152.282C24.1689 152.394 23.7993 153.098 23.8106 153.297C23.8197 153.457 25.3934 152.754 26.1791 152.383L26.5889 152.821L29.3646 152.517C28.9427 153.83 29.5539 154.245 29.9122 154.288C29.9244 154.43 29.9833 154.71 30.1214 154.693L31.7612 154.497C31.4738 154.828 30.9158 155.522 30.9828 155.651C31.0372 155.757 31.9889 155.5 32.5888 155.338C32.9117 155.251 33.1327 155.192 33.0567 155.231C32.883 155.321 32.7194 155.702 32.6592 155.881C34.3603 155.255 35.0338 155.14 35.2596 155.102C35.271 155.1 35.2813 155.098 35.2905 155.097C35.1767 155.179 34.9374 155.413 34.7216 155.624C34.6583 155.686 34.5969 155.745 34.5413 155.799C34.2966 156.035 35.0037 155.925 35.3878 155.841C35.3963 155.917 35.4911 156.041 35.8028 155.935C36.1925 155.802 36.9945 155.935 37.3092 156.012C37.5322 156.067 36.8473 156.59 36.5062 156.851C36.3657 156.958 36.2836 157.021 36.3469 156.988C36.5205 156.899 36.9242 157.101 37.1044 157.213C36.5192 157.618 35.3817 158.527 35.5135 158.924C35.6783 159.421 39.6162 160.126 40.596 159.893C41.1716 159.757 41.1528 159.939 41.1252 160.207C41.1058 160.396 41.082 160.626 41.2569 160.818C41.5816 161.175 41.3861 161.359 41.2896 161.449C41.2602 161.477 41.2399 161.496 41.2465 161.508C42.1427 161.495 42.0819 162.079 42.0311 162.568C42.0046 162.823 41.9807 163.052 42.0974 163.156C42.3447 163.377 41.8141 164.814 41.4765 165.728C41.3499 166.071 41.2505 166.341 41.2293 166.445C41.1672 166.751 42.6291 166.612 43.3678 166.504C44.2723 166.694 43.1374 168.129 42.4569 168.823C41.4536 170.607 40.8164 172.39 41.8477 172.08C42.3554 171.927 42.7038 172.436 42.8145 172.71C42.5461 173.752 43.177 174.063 43.526 174.088C47.7713 173.603 45.8925 175.736 45.1787 176.547C45.034 176.711 44.9371 176.821 44.9489 176.844C45.9031 176.788 45.9004 177.31 45.8972 177.934C45.8954 178.287 45.8934 178.673 46.0649 179.005C48.4856 178.44 49.0373 178.668 49.0105 178.853L53.3518 176.612C53.3519 176.612 53.3519 176.612 53.352 176.612ZM50.0565 176.851L49.7908 176.559C49.7769 176.732 49.8437 176.853 50.0565 176.851Z" fill="#F2C986" fill-opacity="0.8"/>
<defs>
<filter id="filter0_d_83_158" x="197.529" y="0.867859" width="78.281" height="80.4208" filterUnits="userSpaceOnUse" color-interpolation-filters="sRGB">
<feFlood flood-opacity="0" result="BackgroundImageFix"/>
<feColorMatrix in="SourceAlpha" type="matrix" values="0 0 0 0 0 0 0 0 0 0 0 0 0 0 0 0 0 0 127 0" result="hardAlpha"/>
<feOffset dy="-6"/>
<feGaussianBlur stdDeviation="7.5"/>
<feComposite in2="hardAlpha" operator="out"/>
<feColorMatrix type="matrix" values="0 0 0 0 0 0 0 0 0 0 0 0 0 0 0 0 0 0 0.1 0"/>
<feBlend mode="normal" in2="BackgroundImageFix" result="effect1_dropShadow_83_158"/>
<feBlend mode="normal" in="SourceGraphic" in2="effect1_dropShadow_83_158" result="shape"/>
</filter>
<filter id="filter1_d_83_158" x="0.618896" y="109.701" width="65.5527" height="91.4424" filterUnits="userSpaceOnUse" color-interpolation-filters="sRGB">
<feFlood flood-opacity="0" result="BackgroundImageFix"/>
<feColorMatrix in="SourceAlpha" type="matrix" values="0 0 0 0 0 0 0 0 0 0 0 0 0 0 0 0 0 0 127 0" result="hardAlpha"/>
<feOffset dy="6"/>
<feGaussianBlur stdDeviation="7.5"/>
<feComposite in2="hardAlpha" operator="out"/>
<feColorMatrix type="matrix" values="0 0 0 0 0 0 0 0 0 0 0 0 0 0 0 0 0 0 0.1 0"/>
<feBlend mode="normal" in2="BackgroundImageFix" result="effect1_dropShadow_83_158"/>
<feBlend mode="normal" in="SourceGraphic" in2="effect1_dropShadow_83_158" result="shape"/>
</filter>
</defs>
</svg>
