<svg width="256" height="119" viewBox="0 0 256 119" fill="none" xmlns="http://www.w3.org/2000/svg">
<path fill-rule="evenodd" clip-rule="evenodd" d="M248.508 20.1717C231.273 13.9012 220.392 10.5641 207.215 7.53735C186.776 2.88769 169.879 0.366116 163.889 1.12083C160.721 1.54669 159.149 2.25453 157.028 4.24018C154.84 6.28316 154.008 8.18861 153.872 11.5612C153.606 17.7604 156.793 25.8909 165.711 41.6315C168.549 46.6428 169.545 49.0601 169.002 49.5186C168.459 49.9772 163.955 50.0588 160.456 49.6789C155.913 49.2108 151.367 48.2799 143.012 46.1443C131.079 43.0755 125.517 42.227 119.35 42.5884C114.918 42.8023 111.925 43.6632 109.813 45.2923C107.075 47.3729 106.097 49.5181 106.532 52.6027C106.988 55.9413 107.744 57.2033 114.331 65.6423C122.058 75.523 122.229 75.9998 118.04 76.3183C116.96 76.4161 112.134 76.0712 107.299 75.5784C98.715 74.6845 94.6522 74.5091 89.478 74.8074C85.5281 75.0409 76.7761 76.1507 68.6204 77.416C49.1124 80.4749 43.6141 82.133 25.379 90.3231C22.234 91.7388 19.6213 92.8211 19.5448 92.7305C19.3154 92.4589 20.2081 91.0841 21.807 89.3065C24.1055 86.7053 28.1146 80.9908 28.9171 79.1879C29.7421 77.3659 29.7634 76.1066 29.0474 74.6168C28.0151 72.3855 25.2171 71.4133 22.9036 72.4368C21.9243 72.8375 21.2127 73.5551 18.1504 76.9955C16.1756 79.2457 13.3605 82.2447 11.9147 83.6989C5.08762 90.4363 3.77401 91.8176 2.48469 93.4111C0.823015 95.4356 0.147641 96.9759 0.0321741 98.8579C-0.14102 101.681 1.33641 104.118 3.98826 105.33C4.79511 105.734 7.14981 106.228 9.22982 106.488C14.5324 107.167 19.767 108.409 40.8008 113.991C53.6506 117.411 57.9547 118.468 58.8991 118.485C59.574 118.458 59.8089 117.91 59.4073 117.435C59.0057 116.96 44.6879 109.233 39.8207 106.867C37.7201 105.849 34.117 104.199 31.7399 103.22C29.3854 102.222 27.3769 101.359 27.2552 101.307C27.1334 101.254 27.4013 101.067 27.8397 100.852C45.8901 93.3604 50.3065 92.0733 68.9189 88.9176C88.9593 85.5252 93.6588 85.1239 105.996 85.8727C113.861 86.3274 117.74 86.1928 121.025 85.3566C123.046 84.8128 123.704 84.4901 125.458 83.125C127.411 81.6297 127.596 81.435 128.401 79.5904C129.804 76.388 129.477 73.0184 127.417 69.25C126.868 68.2787 124.921 65.4237 123.049 62.9323C119.645 58.3986 116.848 54.3998 116.463 53.4844C116.181 52.83 116.738 52.7089 120.661 52.5362C125.575 52.342 130.062 52.9736 140.705 55.3867C148.769 57.2246 153.306 58.0075 157.962 58.3801C169.383 59.2827 175.84 56.9699 176.701 51.7039C177.198 48.53 176.419 46.2782 171.735 37.7058C164.661 24.7906 161.759 17.2727 161.968 12.519C162.08 9.66988 163.388 9.10782 169.121 9.4243C183.681 10.2349 208.249 14.7713 231.547 20.9238C246.559 24.8833 252.487 26.1202 254.467 25.5729C255.519 25.3045 255.632 25.209 255.885 24.4526C256.01 23.9588 255.93 23.4056 255.682 23.1113C255.452 22.8397 252.219 21.5364 248.508 20.1717Z" fill="#400113"/>
</svg>
